<svg xmlns="http://www.w3.org/2000/svg" xmlns:xlink="http://www.w3.org/1999/xlink" viewBox="117.42 91.75 276.56 323.95">
	<path fill="#C0F" transform="scale(0.5 0.5)" d="M508.376 183.549C511.747 183.377 515.537 183.659 518.75 184.736C523.968 186.485 528.428 190.23 532.986 193.179L551.455 204.867L632.103 255.724L677.762 284.203L732.957 319.75L777.551 346.553C780.992 348.85 784.532 351.727 786.326 355.535C787.413 357.842 787.822 360.47 787.939 363L787.956 406.022L787.789 489.67L787.827 597.791L787.767 650.76C787.673 654.424 787.489 657.549 786.136 661C784.107 666.178 780.131 670.651 775.716 673.957C770.27 678.035 764.19 681.28 758.379 684.802L729.453 702.607L649.614 751.981L606.874 777.092L546.887 812.984C536.422 819.167 526.158 826.089 514.984 830.932C510.797 832.174 505.994 830.728 502.27 828.711C496.044 825.339 490.099 820.954 484.113 817.139L460.875 803.097L386.356 758.696L351.139 736.845L326.531 722.504L276.421 692.139L257.164 680.432C253.228 678.068 249.079 675.845 245.418 673.062C240.881 669.613 237.716 665.112 236.194 659.616C234.287 652.731 234.955 645.487 234.95 638.412L234.929 611.218L235.051 512.119L235.185 415.129L235.105 365.199C235.29 360.996 235.836 357.14 238.01 353.453C239.952 350.161 242.655 347.645 245.815 345.542C251.55 341.726 258.004 338.722 263.941 335.177L303.663 310.563L362.626 273.159L418.359 238.671L448.851 218.75L477.264 201.163C486.873 195.171 497.381 186.422 508.376 183.549ZM393.553 553.952L393.235 563.768C386.732 561.111 381.251 557.261 375.196 553.799C360.555 545.431 345.859 536.349 330.649 529.105L322.624 524.562C320.391 523.058 318.166 521.496 315.824 520.166C313.838 519.038 311.368 517.952 309.75 516.347C309.166 515.768 307.977 514.44 307.693 513.663C307.341 512.703 307.462 510.827 307.432 509.75L307.389 500.32L306.986 500.331C306.828 506.313 306.723 512.135 307.855 518.048L307.676 518.861C307.505 519.612 307.297 520.074 306.997 520.803C306.206 522.724 306.502 524.104 307.25 525.966C308.601 526.942 308.582 527.314 308.886 528.981C309.284 531.158 308.459 533.8 308.463 536.062L308.361 570.19C307.009 574.185 307.433 579.661 307.214 583.885L306.675 577.986C304.815 585.091 303.963 590.558 304.586 597.961L305.525 600.887C306.453 603.882 305.325 610.418 304.937 613.68L304.918 616.857L305.543 616.918C306.634 617.483 306.645 618.369 307.052 619.487C306.924 616.916 307.021 614.792 307.457 612.256C307.475 615.253 306.989 619.193 307.75 622.032C308.63 622.115 308.672 622.041 309.45 622.578C309.471 625.401 309.492 626.961 311.147 629.377L312.114 630.839C317.737 635.524 324.071 638.905 330.492 642.364L343.03 649.607L343.041 649.652C343.472 650.783 343.802 652.049 345 652.59L345.666 652.819C346.606 653.17 346.172 652.939 346.889 653.663C349.623 656.424 351.977 655.428 353.407 659.892C355.558 661.431 357.735 663.028 360 664.391C361.667 665.394 363.632 666.086 365.144 667.292C367.992 668.513 370.319 669.608 372.691 671.664C374.901 673.579 377.768 674.084 380.142 675.662C382.477 676.656 384.193 677.604 386.152 679.266L474.641 732.681L475.459 731.857L511.061 753.223C515.988 750.674 521.162 746.78 526.418 745.128C527.895 745.11 531.414 742.267 532.788 741.384L545.1 733.627L580.5 712.059L593.351 704.579C595.146 703.556 596.855 702.208 598.746 701.404C601.827 700.095 604.1 698.198 606.921 696.468L627.369 684.056L628.636 685.416C629.116 685.896 628.977 685.737 629.755 686L630.75 687.245L631.722 687.251C632.707 687.27 633.184 687.413 634 688L635 687.255L635.306 687.569L636.816 688.943L648.56 681.815L652.607 679.365C655.129 678.382 657.532 676.611 659.841 675.192L660.734 675.022L666.029 671.359L671.423 668.034C673.509 667.018 675.472 665.599 677.43 664.352L685.953 659.142L686.622 658.762L699.117 651.436C704.142 648.881 709.462 645.757 713.925 642.319C714.313 641.515 714.66 641.055 715.339 640.468C717.149 638.901 718.62 637.625 718.941 635.125C717.828 635.807 717.789 635.58 716.56 635.417C717.335 634.048 718.024 633.276 719.247 632.281L719.638 631.97L719.715 628.125L718.75 627.5C718.284 625.893 718.908 624.519 718.64 622.916L718.019 623.003C717.007 624.336 716.501 625.656 715.919 627.217L716.399 384.77C714.143 381.803 708.642 378.993 705.018 378.401C679.467 394.2 653.138 409.103 629.25 427.346C627.664 426.954 626.398 426.418 624.949 425.667L548.833 378.682L526.932 365.113C522.694 362.439 519.11 359.671 514.458 357.648C511.346 358.492 508.146 359.355 505.25 360.799C498.665 364.082 492.345 368.268 486 371.998L440.614 399.301L416.286 413.782C411.497 416.567 406.42 419.131 401.857 422.273C399.275 424.051 396.873 426.049 395.25 428.782C394.378 430.251 393.694 432.065 393.497 433.77C392.965 438.381 393.278 443.335 393.272 447.981L393.28 474.903L393.553 553.952ZM504.617 244.727C496.169 248.575 489.028 254.389 481.279 259.36L465.431 269.25L450.4 279.928L425.433 296.303C416.772 300.71 408.605 306.621 400.484 311.944L362 337.02L323.782 361.462C317.861 365.244 311.673 368.401 306.129 372.755C301.086 376.637 298.405 380.034 297.464 386.5L297.329 387.392C296.604 392.407 296.939 397.762 296.948 402.835L297.006 428.485L297.574 517.328C298.493 515.512 298.245 513.328 298.247 511.337L298.636 511.321C298.663 512.773 298.643 514.192 298.926 515.62C299.809 520.074 299.231 525.619 299.07 530.188L299.104 530.679L299.764 565.629C299.891 570.022 299.525 575.078 300.858 579.25C301.735 581.995 301.582 584.475 302.992 587.167C303.575 588.281 304.357 589.054 304.038 590.292C303.39 589.639 303.638 589.964 303.247 589.357L303.25 590.755L304.243 591.5L304.242 592.748L303.5 592.5L303.248 591.673L303.375 593.753L304.016 593.584C304.658 596.023 304.263 599.218 304.25 601.755C304.661 600.514 304.566 599.259 304.586 597.961C303.963 590.558 304.815 585.091 306.675 577.986L307.214 583.885C307.433 579.661 307.009 574.185 308.361 570.19L308.463 536.062C308.459 533.8 309.284 531.158 308.886 528.981C308.582 527.314 308.601 526.942 307.25 525.966C306.502 524.104 306.206 522.724 306.997 520.803C307.297 520.074 307.505 519.612 307.676 518.861L307.855 518.048C306.723 512.135 306.828 506.313 306.986 500.331L307.389 500.32L307.794 445.473L307.615 410.916C307.598 404.87 307.603 398.915 308.057 392.882C308.198 391.016 308.17 388.56 308.653 386.762C309.158 384.877 312.754 381.805 314.285 380.676C317.444 378.346 321.465 376.734 324.88 374.755L339.141 365.771L407.126 321.934L411.913 318.89L412.97 318.002C416.736 316.289 420.545 313.233 424.026 310.916C427.738 308.445 432.385 305.947 435.561 302.869C438.771 301.108 441.833 298.691 445.001 296.768L489.626 267.832C495.856 263.668 502.177 258.792 508.773 255.246C510.428 254.356 512.085 254.201 513.932 254.098C515.202 255.804 518.078 256.691 519.913 257.793C519.488 256.434 519.267 256.231 519.75 254.918L516.259 252.75C516.056 252.216 515.768 251.582 515.712 251C515.56 249.426 516.147 248.635 516.997 247.395C518.137 247.17 520.147 246.494 521.25 246.6C522.938 246.762 525.493 248.626 527.377 249.146L527.952 249.3C524.764 247.011 520.947 244.969 517.25 243.611C512.35 241.811 509.195 242.565 504.617 244.727ZM698.367 360.17L698.046 361.038L697.731 362.25C695.998 364.07 695.606 363.284 693.582 363.959L692.411 364.765L692.403 365.654C692.384 366.552 692.25 367.005 691.734 367.76L691.943 368.317L690.95 368.863C692.169 369.721 693.306 370.596 694.665 371.223L694.965 371.557C697.961 374.18 701.686 376.218 705.018 378.401C708.642 378.993 714.143 381.803 716.399 384.77L715.919 627.217C716.501 625.656 717.007 624.336 718.019 623.003L718.64 622.916C718.908 624.519 718.284 625.893 718.75 627.5L719.715 628.125L719.638 631.97L719.247 632.281C718.024 633.276 717.335 634.048 716.56 635.417C717.789 635.58 717.828 635.807 718.941 635.125C718.62 637.625 717.149 638.901 715.339 640.468C714.66 641.055 714.313 641.515 713.925 642.319C717.98 640.105 722.168 636.538 724.359 632.43C726.359 628.681 727.12 624.379 727.376 620.175C728.041 609.252 727.493 597.963 727.49 587.009L727.377 520.728L727.465 431.599L727.793 393.187C727.733 389.855 727.652 386.283 726.605 383.095C723.976 375.09 715.897 370.759 709.159 366.548C705.73 364.405 702.329 362.102 698.69 360.331L698.367 360.17ZM376.041 682.117L423.25 711.858L473.083 742.268L497.109 757.146C501.169 759.624 505.291 762.608 509.737 764.3C518.146 762.097 524.897 757.77 532.137 753.155L553.001 740.027L575.031 727.25L636.816 688.943L635.306 687.569L635 687.255L634 688C633.184 687.413 632.707 687.27 631.722 687.251L630.75 687.245L629.755 686C628.977 685.737 629.116 685.896 628.636 685.416L627.369 684.056L606.921 696.468C604.1 698.198 601.827 700.095 598.746 701.404C596.855 702.208 595.146 703.556 593.351 704.579L580.5 712.059L545.1 733.627L532.788 741.384C531.414 742.267 527.895 745.11 526.418 745.128C521.162 746.78 515.988 750.674 511.061 753.223L475.459 731.857L474.641 732.681L386.152 679.266L385.954 680.017L386.838 681L386.25 681.504C382.126 680.896 381.505 677.88 377.25 680.98C376.481 681.54 377.091 681.209 376.53 681.737L376.041 682.117ZM519.913 257.793L527.107 262.312C529.578 264.089 538.144 270.923 540.529 271.264C545.056 274.56 550.348 278.575 555.397 280.941L556.496 281.804L561.946 285.435L566.541 288.348C567.077 288.694 568.404 289.787 568.969 289.811L570.029 289.106L571.296 289.436C572.212 287.975 572.561 287.22 572.309 285.497C572.152 284.417 572.057 283.685 572.25 282.6L574.476 281.96L574.145 279.542C571.259 277.324 567.873 274.795 564.601 273.211C561.87 270.73 557.978 268.838 554.812 266.869C550.244 264.029 545.704 260.762 540.915 258.337C537.218 255.111 532.297 251.535 527.952 249.3L527.377 249.146C525.493 248.626 522.938 246.762 521.25 246.6C520.147 246.494 518.137 247.17 516.997 247.395C516.147 248.635 515.56 249.426 515.712 251C515.768 251.582 516.056 252.216 516.259 252.75L519.75 254.918C519.267 256.231 519.488 256.434 519.913 257.793ZM651.452 330.238L650.884 330.565C650.113 330.99 650.442 330.872 649.652 331C649.154 331.56 648.846 331.742 648.685 332.477C648.49 333.36 648.619 332.861 648.169 333.617C647.723 334.367 647.785 334.847 647.763 335.682C647.73 336.923 647.501 338.226 647.17 339.422L646.397 339.883C647.735 340.894 649.049 341.771 650.509 342.598L690.95 368.863L691.943 368.317L691.734 367.76C692.25 367.005 692.384 366.552 692.403 365.654L692.411 364.765L693.582 363.959C695.606 363.284 695.998 364.07 697.731 362.25L698.046 361.038L698.367 360.17L652.936 331.175L651.452 330.238ZM574.145 279.542L574.476 281.96L572.25 282.6C572.057 283.685 572.152 284.417 572.309 285.497C572.561 287.22 572.212 287.975 571.296 289.436L570.029 289.106L568.969 289.811L577.335 295.427L587.274 301.994L589.555 303.314L595.013 306.877L605.944 314.028L608.768 315.778C609.644 316.336 611.075 317.546 612.037 317.772L612.654 316.888C614.703 316.596 615.625 315.847 616.917 314.279L617.531 313.515C618.223 313.185 618.515 313.125 619.312 313.158C620.346 313.201 619.735 313.376 620.745 312.75L620.255 312.25L620.401 309.881L619.516 309.486C618.115 307.885 614.869 306.396 612.991 305.249L574.145 279.542ZM312.579 635.564L313.201 636.358L311.778 637.263C311.753 638.588 310.187 640.936 310.655 641.41C311.377 642.141 312.184 642.685 313.018 643.281L313.032 643.761L350.653 666.717C350.975 665.893 350.852 665.65 351.684 665.253L352.75 663.607C354.318 663.52 354.433 663.547 355.613 664.574C356.315 665.184 356.346 665.837 356.838 666.5C357.403 667.262 357.335 667.111 358.041 667.112C360.033 667.118 360.338 667.423 362 668.245L363.002 668.497L364 669.215L365.25 669.245L365.745 668.75L364.909 667.697L365.144 667.292C363.632 666.086 361.667 665.394 360 664.391C357.735 663.028 355.558 661.431 353.407 659.892C351.977 655.428 349.623 656.424 346.889 653.663C346.172 652.939 346.606 653.17 345.666 652.819L345 652.59C343.802 652.049 343.472 650.783 343.041 649.652L343.03 649.607L330.492 642.364C324.071 638.905 317.737 635.524 312.114 630.839C311.867 632.282 311.686 632.259 312.275 633.582L312.579 635.564ZM298.247 511.337C298.245 513.328 298.493 515.512 297.574 517.328L297.994 621.188L299.25 625.133C299.633 623.921 300.147 622.936 300.75 621.825L301.75 622.184C302.817 621.946 303.547 621.54 304.48 620.98C305.162 619.62 305.336 618.399 305.543 616.918L304.918 616.857L304.937 613.68C305.325 610.418 306.453 603.882 305.525 600.887L304.586 597.961C304.566 599.259 304.661 600.514 304.25 601.755C304.263 599.218 304.658 596.023 304.016 593.584L303.375 593.753L303.248 591.673L303.5 592.5L304.242 592.748L304.243 591.5L303.25 590.755L303.247 589.357C303.638 589.964 303.39 589.639 304.038 590.292C304.357 589.054 303.575 588.281 302.992 587.167C301.582 584.475 301.735 581.995 300.858 579.25C299.525 575.078 299.891 570.022 299.764 565.629L299.104 530.679L299.07 530.188C299.231 525.619 299.809 520.074 298.926 515.62C298.643 514.192 298.663 512.773 298.636 511.321L298.247 511.337ZM628.95 320.497C628.056 322.976 627.28 323.278 625.25 324.74L624.062 324.037L623.006 324.756L630.004 329.341C632.216 330.816 635.063 333.282 637.509 334.148L646.397 339.883L647.17 339.422C647.501 338.226 647.73 336.923 647.763 335.682C647.785 334.847 647.723 334.367 648.169 333.617C648.619 332.861 648.49 333.36 648.685 332.477C648.846 331.742 649.154 331.56 649.652 331C650.442 330.872 650.113 330.99 650.884 330.565L651.452 330.238C648.293 327.603 644.487 325.386 641.007 323.168L638.309 321.216L637.361 320.688C636.51 320.698 635.012 320.378 634.25 320.482C632.97 320.657 633.266 321.116 631.5 320.775L630.919 321.25C630.234 321.061 629.604 320.772 628.95 320.497ZM350.653 666.717L362.712 674.047C364.196 674.956 366.384 676.744 368.026 677.174L376.041 682.117L376.53 681.737C377.091 681.209 376.481 681.54 377.25 680.98C381.505 677.88 382.126 680.896 386.25 681.504L386.838 681L385.954 680.017L386.152 679.266C384.193 677.604 382.477 676.656 380.142 675.662C377.768 674.084 374.901 673.579 372.691 671.664C370.319 669.608 367.992 668.513 365.144 667.292L364.909 667.697L365.745 668.75L365.25 669.245L364 669.215L363.002 668.497L362 668.245C360.338 667.423 360.033 667.118 358.041 667.112C357.335 667.111 357.403 667.262 356.838 666.5C356.346 665.837 356.315 665.184 355.613 664.574C354.433 663.547 354.318 663.52 352.75 663.607L351.684 665.253C350.852 665.65 350.975 665.893 350.653 666.717ZM307.052 619.487C306.645 618.369 306.634 617.483 305.543 616.918C305.336 618.399 305.162 619.62 304.48 620.98C303.547 621.54 302.817 621.946 301.75 622.184L300.75 621.825C300.147 622.936 299.633 623.921 299.25 625.133L297.994 621.188C298.272 627.932 300.017 633.627 305.133 638.361C306.633 639.75 311.09 643.534 313.032 643.761L313.018 643.281C312.184 642.685 311.377 642.141 310.655 641.41C310.187 640.936 311.753 638.588 311.778 637.263L313.201 636.358L312.579 635.564L312.275 633.582C311.686 632.259 311.867 632.282 312.114 630.839L311.147 629.377C309.492 626.961 309.471 625.401 309.45 622.578C308.672 622.041 308.63 622.115 307.75 622.032C306.989 619.193 307.475 615.253 307.457 612.256C307.021 614.792 306.924 616.916 307.052 619.487ZM620.401 309.881L620.255 312.25L620.745 312.75C619.735 313.376 620.346 313.201 619.312 313.158C618.515 313.125 618.223 313.185 617.531 313.515L616.917 314.279C615.625 315.847 614.703 316.596 612.654 316.888L612.037 317.772L617.819 321.612L621.443 323.856L623.006 324.756L624.062 324.037L625.25 324.74C627.28 323.278 628.056 322.976 628.95 320.497L627.628 318.947C628.114 318.296 627.923 318.623 628.299 317.753L628.58 317.082L627.941 316.184L627.25 316.245L627.078 314.157L620.401 309.881ZM627.078 314.157L627.25 316.245L627.941 316.184L628.58 317.082L628.299 317.753C627.923 318.623 628.114 318.296 627.628 318.947L628.95 320.497C629.604 320.772 630.234 321.061 630.919 321.25L631.5 320.775C633.266 321.116 632.97 320.657 634.25 320.482C635.012 320.378 636.51 320.698 637.361 320.688C634.292 318.164 630.535 316.115 627.078 314.157Z"/>
	<defs>
		<linearGradient id="gradient_0" gradientUnits="userSpaceOnUse" x1="629.4046" y1="320.42673" x2="629.60211" y2="317.47339">
			<stop offset="0" stop-color="black" stop-opacity="0.22352941"/>
			<stop offset="1" stop-color="black" stop-opacity="0.27843139"/>
		</linearGradient>
	</defs>
	<path fill="url(#gradient_0)" transform="scale(0.5 0.5)" d="M627.078 314.157C630.535 316.115 634.292 318.164 637.361 320.688C636.51 320.698 635.012 320.378 634.25 320.482C632.97 320.657 633.266 321.116 631.5 320.775L630.919 321.25C630.234 321.061 629.604 320.772 628.95 320.497L627.628 318.947C628.114 318.296 627.923 318.623 628.299 317.753L628.58 317.082L627.941 316.184L627.25 316.245L627.078 314.157Z"/>
	<defs>
		<linearGradient id="gradient_1" gradientUnits="userSpaceOnUse" x1="622.52478" y1="319.74783" x2="619.58203" y2="316.16446">
			<stop offset="0" stop-color="black" stop-opacity="0.15686275"/>
			<stop offset="1" stop-color="black" stop-opacity="0.19215687"/>
		</linearGradient>
	</defs>
	<path fill="url(#gradient_1)" transform="scale(0.5 0.5)" d="M620.401 309.881L627.078 314.157L627.25 316.245L627.941 316.184L628.58 317.082L628.299 317.753C627.923 318.623 628.114 318.296 627.628 318.947L628.95 320.497C628.056 322.976 627.28 323.278 625.25 324.74L624.062 324.037L623.006 324.756L621.443 323.856L617.819 321.612L612.037 317.772L612.654 316.888C614.703 316.596 615.625 315.847 616.917 314.279L617.531 313.515C618.223 313.185 618.515 313.125 619.312 313.158C620.346 313.201 619.735 313.376 620.745 312.75L620.255 312.25L620.401 309.881ZM620.401 309.881L620.255 312.25L620.745 312.75C619.735 313.376 620.346 313.201 619.312 313.158C618.515 313.125 618.223 313.185 617.531 313.515L616.917 314.279C615.625 315.847 614.703 316.596 612.654 316.888L612.037 317.772L617.819 321.612L619.084 319.75C618.842 319.118 618.768 319.024 618.688 318.25C618.535 316.763 618.859 315.073 619.757 313.886L621.582 313.97C622.608 313.689 622.728 313.384 623.704 313.969C624.811 314.632 625.199 315.036 625.449 316.312L625.549 316.998C626.764 317.314 627.346 317.204 628.58 317.082L627.941 316.184L627.25 316.245L627.078 314.157L620.401 309.881ZM621.582 313.97C622.799 314.866 624.187 315.354 624.302 316.998C624.43 318.827 624.046 320.631 623.245 322.25L622.943 322.904C622.612 323.609 622.139 323.578 621.443 323.856L623.006 324.756L624.062 324.037L625.25 324.74C627.28 323.278 628.056 322.976 628.95 320.497L627.628 318.947C628.114 318.296 627.923 318.623 628.299 317.753L628.58 317.082C627.346 317.204 626.764 317.314 625.549 316.998L625.449 316.312C625.199 315.036 624.811 314.632 623.704 313.969C622.728 313.384 622.608 313.689 621.582 313.97Z"/>
	<defs>
		<linearGradient id="gradient_2" gradientUnits="userSpaceOnUse" x1="626.85461" y1="317.96002" x2="625.43616" y2="323.1199">
			<stop offset="0" stop-color="black" stop-opacity="0.29803923"/>
			<stop offset="1" stop-color="black" stop-opacity="0.34509805"/>
		</linearGradient>
	</defs>
	<path fill="url(#gradient_2)" transform="scale(0.5 0.5)" d="M621.582 313.97C622.608 313.689 622.728 313.384 623.704 313.969C624.811 314.632 625.199 315.036 625.449 316.312L625.549 316.998C626.764 317.314 627.346 317.204 628.58 317.082L628.299 317.753C627.923 318.623 628.114 318.296 627.628 318.947L628.95 320.497C628.056 322.976 627.28 323.278 625.25 324.74L624.062 324.037L623.006 324.756L621.443 323.856C622.139 323.578 622.612 323.609 622.943 322.904L623.245 322.25C624.046 320.631 624.43 318.827 624.302 316.998C624.187 315.354 622.799 314.866 621.582 313.97Z"/>
	<path transform="scale(0.5 0.5)" d="M620.401 309.881L627.078 314.157L627.25 316.245L627.941 316.184L628.58 317.082C627.346 317.204 626.764 317.314 625.549 316.998L625.449 316.312C625.199 315.036 624.811 314.632 623.704 313.969C622.728 313.384 622.608 313.689 621.582 313.97L619.757 313.886C618.859 315.073 618.535 316.763 618.688 318.25C618.768 319.024 618.842 319.118 619.084 319.75L617.819 321.612L612.037 317.772L612.654 316.888C614.703 316.596 615.625 315.847 616.917 314.279L617.531 313.515C618.223 313.185 618.515 313.125 619.312 313.158C620.346 313.201 619.735 313.376 620.745 312.75L620.255 312.25L620.401 309.881Z"/>
	<path transform="scale(0.5 0.5)" d="M307.052 619.487C306.924 616.916 307.021 614.792 307.457 612.256C307.475 615.253 306.989 619.193 307.75 622.032C308.63 622.115 308.672 622.041 309.45 622.578C309.471 625.401 309.492 626.961 311.147 629.377L312.114 630.839C311.867 632.282 311.686 632.259 312.275 633.582L312.579 635.564L313.201 636.358L311.778 637.263C311.753 638.588 310.187 640.936 310.655 641.41C311.377 642.141 312.184 642.685 313.018 643.281L313.032 643.761C311.09 643.534 306.633 639.75 305.133 638.361C300.017 633.627 298.272 627.932 297.994 621.188L299.25 625.133C299.633 623.921 300.147 622.936 300.75 621.825L301.75 622.184C302.817 621.946 303.547 621.54 304.48 620.98C305.162 619.62 305.336 618.399 305.543 616.918C306.634 617.483 306.645 618.369 307.052 619.487ZM307.052 619.487L306.75 621.733L305.7 621.548C305.292 622.852 304.114 625.423 304.124 626.707C304.13 627.417 305.195 629.5 305.482 630.25L306.825 630.75C307.417 631.408 307.495 631.649 308.335 631.934C310.295 632.6 311.384 633.976 312.579 635.564L312.275 633.582C311.686 632.259 311.867 632.282 312.114 630.839L311.147 629.377C309.492 626.961 309.471 625.401 309.45 622.578C308.672 622.041 308.63 622.115 307.75 622.032C306.989 619.193 307.475 615.253 307.457 612.256C307.021 614.792 306.924 616.916 307.052 619.487Z"/>
	<defs>
		<linearGradient id="gradient_3" gradientUnits="userSpaceOnUse" x1="305.32535" y1="625.83063" x2="308.38281" y2="625.70251">
			<stop offset="0" stop-color="black" stop-opacity="0.75294119"/>
			<stop offset="1" stop-color="black" stop-opacity="0.78823531"/>
		</linearGradient>
	</defs>
	<path fill="url(#gradient_3)" transform="scale(0.5 0.5)" d="M307.052 619.487C306.924 616.916 307.021 614.792 307.457 612.256C307.475 615.253 306.989 619.193 307.75 622.032C308.63 622.115 308.672 622.041 309.45 622.578C309.471 625.401 309.492 626.961 311.147 629.377L312.114 630.839C311.867 632.282 311.686 632.259 312.275 633.582L312.579 635.564C311.384 633.976 310.295 632.6 308.335 631.934C307.495 631.649 307.417 631.408 306.825 630.75L305.482 630.25C305.195 629.5 304.13 627.417 304.124 626.707C304.114 625.423 305.292 622.852 305.7 621.548L306.75 621.733L307.052 619.487Z"/>
	<defs>
		<linearGradient id="gradient_4" gradientUnits="userSpaceOnUse" x1="359.85529" y1="667.29608" x2="362.04642" y2="671.51471">
			<stop offset="0" stop-color="black" stop-opacity="0.17254902"/>
			<stop offset="1" stop-color="black" stop-opacity="0.21960784"/>
		</linearGradient>
	</defs>
	<path fill="url(#gradient_4)" transform="scale(0.5 0.5)" d="M350.653 666.717C350.975 665.893 350.852 665.65 351.684 665.253L352.75 663.607C354.318 663.52 354.433 663.547 355.613 664.574C356.315 665.184 356.346 665.837 356.838 666.5C357.403 667.262 357.335 667.111 358.041 667.112C360.033 667.118 360.338 667.423 362 668.245L363.002 668.497L364 669.215L365.25 669.245L365.745 668.75L364.909 667.697L365.144 667.292C367.992 668.513 370.319 669.608 372.691 671.664C374.901 673.579 377.768 674.084 380.142 675.662C382.477 676.656 384.193 677.604 386.152 679.266L385.954 680.017L386.838 681L386.25 681.504C382.126 680.896 381.505 677.88 377.25 680.98C376.481 681.54 377.091 681.209 376.53 681.737L376.041 682.117L368.026 677.174C366.384 676.744 364.196 674.956 362.712 674.047L350.653 666.717ZM368.026 677.174L376.041 682.117L376.53 681.737C377.091 681.209 376.481 681.54 377.25 680.98C381.505 677.88 382.126 680.896 386.25 681.504L386.838 681L385.954 680.017L386.152 679.266C384.193 677.604 382.477 676.656 380.142 675.662L379.769 676.541L379.657 677.25C378.619 677.37 378.3 677.607 377.368 677.074L375.953 676.257C374.463 675.376 373.461 675.254 371.75 675.304L371.392 675.638C371.081 675.913 370.822 676.183 370.371 676.22L369.46 676.125C368.372 676.192 368.578 676.304 368.026 677.174Z"/>
	<path transform="scale(0.5 0.5)" d="M368.026 677.174C368.578 676.304 368.372 676.192 369.46 676.125L370.371 676.22C370.822 676.183 371.081 675.913 371.392 675.638L371.75 675.304C373.461 675.254 374.463 675.376 375.953 676.257L377.368 677.074C378.3 677.607 378.619 677.37 379.657 677.25L379.769 676.541L380.142 675.662C382.477 676.656 384.193 677.604 386.152 679.266L385.954 680.017L386.838 681L386.25 681.504C382.126 680.896 381.505 677.88 377.25 680.98C376.481 681.54 377.091 681.209 376.53 681.737L376.041 682.117L368.026 677.174Z"/>
	<defs>
		<linearGradient id="gradient_5" gradientUnits="userSpaceOnUse" x1="633.13733" y1="323.21548" x2="636.83636" y2="330.81027">
			<stop offset="0" stop-color="black" stop-opacity="0.1254902"/>
			<stop offset="1" stop-color="black" stop-opacity="0.21176471"/>
		</linearGradient>
	</defs>
	<path fill="url(#gradient_5)" transform="scale(0.5 0.5)" d="M628.95 320.497C629.604 320.772 630.234 321.061 630.919 321.25L631.5 320.775C633.266 321.116 632.97 320.657 634.25 320.482C635.012 320.378 636.51 320.698 637.361 320.688L638.309 321.216L641.007 323.168C644.487 325.386 648.293 327.603 651.452 330.238L650.884 330.565C650.113 330.99 650.442 330.872 649.652 331C649.154 331.56 648.846 331.742 648.685 332.477C648.49 333.36 648.619 332.861 648.169 333.617C647.723 334.367 647.785 334.847 647.763 335.682C647.73 336.923 647.501 338.226 647.17 339.422L646.397 339.883L637.509 334.148C635.063 333.282 632.216 330.816 630.004 329.341L623.006 324.756L624.062 324.037L625.25 324.74C627.28 323.278 628.056 322.976 628.95 320.497ZM641.007 323.168C639.845 324.327 640.044 325.151 639.865 326.75L641.487 329.25C640.989 331.468 640.568 331.683 638.867 333.25L637.962 333.359L637.509 334.148L646.397 339.883L647.17 339.422C647.501 338.226 647.73 336.923 647.763 335.682C647.785 334.847 647.723 334.367 648.169 333.617C648.619 332.861 648.49 333.36 648.685 332.477C648.846 331.742 649.154 331.56 649.652 331C650.442 330.872 650.113 330.99 650.884 330.565L651.452 330.238C648.293 327.603 644.487 325.386 641.007 323.168ZM628.95 320.497C628.056 322.976 627.28 323.278 625.25 324.74L624.062 324.037L623.006 324.756L630.004 329.341C630.721 328.834 631.273 328.144 631.866 327.5L631.397 326.5L630.75 325.755L630.851 324.702L631.713 324.757L632.309 322.548L632.467 321.75C633.482 321.839 634.485 321.842 635.324 322.502L636 323.108L638.309 321.216L637.361 320.688C636.51 320.698 635.012 320.378 634.25 320.482C632.97 320.657 633.266 321.116 631.5 320.775L630.919 321.25C630.234 321.061 629.604 320.772 628.95 320.497Z"/>
	<defs>
		<linearGradient id="gradient_6" gradientUnits="userSpaceOnUse" x1="630.21027" y1="326.08594" x2="627.39899" y2="325.43921">
			<stop offset="0" stop-color="black" stop-opacity="0.20392157"/>
			<stop offset="1" stop-color="black" stop-opacity="0.23921569"/>
		</linearGradient>
	</defs>
	<path fill="url(#gradient_6)" transform="scale(0.5 0.5)" d="M628.95 320.497C629.604 320.772 630.234 321.061 630.919 321.25L631.5 320.775C633.266 321.116 632.97 320.657 634.25 320.482C635.012 320.378 636.51 320.698 637.361 320.688L638.309 321.216L636 323.108L635.324 322.502C634.485 321.842 633.482 321.839 632.467 321.75L632.309 322.548L631.713 324.757L630.851 324.702L630.75 325.755L631.397 326.5L631.866 327.5C631.273 328.144 630.721 328.834 630.004 329.341L623.006 324.756L624.062 324.037L625.25 324.74C627.28 323.278 628.056 322.976 628.95 320.497Z"/>
	<path transform="scale(0.5 0.5)" d="M641.007 323.168C644.487 325.386 648.293 327.603 651.452 330.238L650.884 330.565C650.113 330.99 650.442 330.872 649.652 331C649.154 331.56 648.846 331.742 648.685 332.477C648.49 333.36 648.619 332.861 648.169 333.617C647.723 334.367 647.785 334.847 647.763 335.682C647.73 336.923 647.501 338.226 647.17 339.422L646.397 339.883L637.509 334.148L637.962 333.359L638.867 333.25C640.568 331.683 640.989 331.468 641.487 329.25L639.865 326.75C640.044 325.151 639.845 324.327 641.007 323.168Z"/>
	<path transform="scale(0.5 0.5)" d="M298.247 511.337L298.636 511.321C298.663 512.773 298.643 514.192 298.926 515.62C299.809 520.074 299.231 525.619 299.07 530.188L299.104 530.679L299.764 565.629C299.891 570.022 299.525 575.078 300.858 579.25C301.735 581.995 301.582 584.475 302.992 587.167C303.575 588.281 304.357 589.054 304.038 590.292C303.39 589.639 303.638 589.964 303.247 589.357L303.25 590.755L304.243 591.5L304.242 592.748L303.5 592.5L303.248 591.673L303.375 593.753L304.016 593.584C304.658 596.023 304.263 599.218 304.25 601.755C304.661 600.514 304.566 599.259 304.586 597.961L305.525 600.887C306.453 603.882 305.325 610.418 304.937 613.68L304.918 616.857L305.543 616.918C305.336 618.399 305.162 619.62 304.48 620.98C303.547 621.54 302.817 621.946 301.75 622.184L300.75 621.825C300.147 622.936 299.633 623.921 299.25 625.133L297.994 621.188L297.574 517.328C298.493 515.512 298.245 513.328 298.247 511.337ZM299.07 530.188C298.458 531.666 298.719 533.592 298.715 535.17C298.704 539.616 298.585 544.08 298.994 548.5C299.488 553.836 299.173 559.565 299.209 564.938L299.045 594.4C301.149 598.065 301.339 601.801 301.825 605.894L302.219 606.522C302.684 607.239 303.176 607.855 303.731 608.5L304.245 614.5L304.298 614.074L304.937 613.68C305.325 610.418 306.453 603.882 305.525 600.887L304.586 597.961C304.566 599.259 304.661 600.514 304.25 601.755C304.263 599.218 304.658 596.023 304.016 593.584L303.375 593.753L303.248 591.673L303.5 592.5L304.242 592.748L304.243 591.5L303.25 590.755L303.247 589.357C303.638 589.964 303.39 589.639 304.038 590.292C304.357 589.054 303.575 588.281 302.992 587.167C301.582 584.475 301.735 581.995 300.858 579.25C299.525 575.078 299.891 570.022 299.764 565.629L299.104 530.679L299.07 530.188ZM301.825 605.894C301.624 608.34 302.073 611.026 300.602 613.002C300.134 614.322 300.928 615.867 301.344 617.144L302.5 617.854L304.098 617.244C304.702 617.015 304.467 617.133 304.918 616.857L304.937 613.68L304.298 614.074L304.245 614.5L303.731 608.5C303.176 607.855 302.684 607.239 302.219 606.522L301.825 605.894ZM299.045 594.4C299.025 596.779 298.496 602.44 299.893 604.25L300.602 613.002C302.073 611.026 301.624 608.34 301.825 605.894C301.339 601.801 301.149 598.065 299.045 594.4Z"/>
	<path transform="scale(0.5 0.5)" d="M299.045 594.4C301.149 598.065 301.339 601.801 301.825 605.894C301.624 608.34 302.073 611.026 300.602 613.002L299.893 604.25C298.496 602.44 299.025 596.779 299.045 594.4Z"/>
	<defs>
		<linearGradient id="gradient_7" gradientUnits="userSpaceOnUse" x1="304.48297" y1="611.599" x2="300.2814" y2="614.56744">
			<stop offset="0" stop-color="black" stop-opacity="0.37254903"/>
			<stop offset="1" stop-color="black" stop-opacity="0.46666667"/>
		</linearGradient>
	</defs>
	<path fill="url(#gradient_7)" transform="scale(0.5 0.5)" d="M301.825 605.894L302.219 606.522C302.684 607.239 303.176 607.855 303.731 608.5L304.245 614.5L304.298 614.074L304.937 613.68L304.918 616.857C304.467 617.133 304.702 617.015 304.098 617.244L302.5 617.854L301.344 617.144C300.928 615.867 300.134 614.322 300.602 613.002C302.073 611.026 301.624 608.34 301.825 605.894Z"/>
	<path transform="scale(0.5 0.5)" d="M299.07 530.188L299.104 530.679L299.764 565.629C299.891 570.022 299.525 575.078 300.858 579.25C301.735 581.995 301.582 584.475 302.992 587.167C303.575 588.281 304.357 589.054 304.038 590.292C303.39 589.639 303.638 589.964 303.247 589.357L303.25 590.755L304.243 591.5L304.242 592.748L303.5 592.5L303.248 591.673L303.375 593.753L304.016 593.584C304.658 596.023 304.263 599.218 304.25 601.755C304.661 600.514 304.566 599.259 304.586 597.961L305.525 600.887C306.453 603.882 305.325 610.418 304.937 613.68L304.298 614.074L304.245 614.5L303.731 608.5C303.176 607.855 302.684 607.239 302.219 606.522L301.825 605.894C301.339 601.801 301.149 598.065 299.045 594.4L299.209 564.938C299.173 559.565 299.488 553.836 298.994 548.5C298.585 544.08 298.704 539.616 298.715 535.17C298.719 533.592 298.458 531.666 299.07 530.188Z"/>
	<defs>
		<linearGradient id="gradient_8" gradientUnits="userSpaceOnUse" x1="342.80118" y1="656.62726" x2="341.3717" y2="658.3963">
			<stop offset="0" stop-color="black" stop-opacity="0.31764707"/>
			<stop offset="1" stop-color="black" stop-opacity="0.34901962"/>
		</linearGradient>
	</defs>
	<path fill="url(#gradient_8)" transform="scale(0.5 0.5)" d="M312.579 635.564L312.275 633.582C311.686 632.259 311.867 632.282 312.114 630.839C317.737 635.524 324.071 638.905 330.492 642.364L343.03 649.607L343.041 649.652C343.472 650.783 343.802 652.049 345 652.59L345.666 652.819C346.606 653.17 346.172 652.939 346.889 653.663C349.623 656.424 351.977 655.428 353.407 659.892C355.558 661.431 357.735 663.028 360 664.391C361.667 665.394 363.632 666.086 365.144 667.292L364.909 667.697L365.745 668.75L365.25 669.245L364 669.215L363.002 668.497L362 668.245C360.338 667.423 360.033 667.118 358.041 667.112C357.335 667.111 357.403 667.262 356.838 666.5C356.346 665.837 356.315 665.184 355.613 664.574C354.433 663.547 354.318 663.52 352.75 663.607L351.684 665.253C350.852 665.65 350.975 665.893 350.653 666.717L313.032 643.761L313.018 643.281C312.184 642.685 311.377 642.141 310.655 641.41C310.187 640.936 311.753 638.588 311.778 637.263L313.201 636.358L312.579 635.564ZM312.579 635.564L313.201 636.358C314.771 637.313 315.656 637.957 316.56 639.574C317.488 641.235 319.235 640.947 319.5 642.485L320.147 642.723C321.101 643.09 320.702 642.916 321.487 643.34C322.289 643.774 321.689 643.503 322.513 643.717C323.869 644.069 326.849 646.386 328.029 647.309C329.37 648.357 330.463 648.73 332.121 649.037L331.74 647.756C330.925 645.85 331.598 644.263 330.492 642.364C324.071 638.905 317.737 635.524 312.114 630.839C311.867 632.282 311.686 632.259 312.275 633.582L312.579 635.564ZM330.492 642.364C331.598 644.263 330.925 645.85 331.74 647.756L332.121 649.037C334.301 649.521 335.374 650.698 336.773 652.25C337.469 653.022 338.73 653.377 339.75 653.233C340.394 653.142 340.751 652.973 341.33 652.75C343.398 653.773 345.205 655.253 347.148 656.25C348.697 657.045 349.786 657.103 351.265 658.25L353.407 659.892C351.977 655.428 349.623 656.424 346.889 653.663C346.172 652.939 346.606 653.17 345.666 652.819L345 652.59C343.802 652.049 343.472 650.783 343.041 649.652L343.03 649.607L330.492 642.364Z"/>
	<path transform="scale(0.5 0.5)" d="M330.492 642.364L343.03 649.607L343.041 649.652C343.472 650.783 343.802 652.049 345 652.59L345.666 652.819C346.606 653.17 346.172 652.939 346.889 653.663C349.623 656.424 351.977 655.428 353.407 659.892L351.265 658.25C349.786 657.103 348.697 657.045 347.148 656.25C345.205 655.253 343.398 653.773 341.33 652.75C340.751 652.973 340.394 653.142 339.75 653.233C338.73 653.377 337.469 653.022 336.773 652.25C335.374 650.698 334.301 649.521 332.121 649.037L331.74 647.756C330.925 645.85 331.598 644.263 330.492 642.364Z"/>
	<defs>
		<linearGradient id="gradient_9" gradientUnits="userSpaceOnUse" x1="323.19489" y1="641.8786" x2="325.78342" y2="639.54321">
			<stop offset="0" stop-color="black" stop-opacity="0.86666667"/>
			<stop offset="1" stop-color="black" stop-opacity="0.90588236"/>
		</linearGradient>
	</defs>
	<path fill="url(#gradient_9)" transform="scale(0.5 0.5)" d="M312.579 635.564L312.275 633.582C311.686 632.259 311.867 632.282 312.114 630.839C317.737 635.524 324.071 638.905 330.492 642.364C331.598 644.263 330.925 645.85 331.74 647.756L332.121 649.037C330.463 648.73 329.37 648.357 328.029 647.309C326.849 646.386 323.869 644.069 322.513 643.717C321.689 643.503 322.289 643.774 321.487 643.34C320.702 642.916 321.101 643.09 320.147 642.723L319.5 642.485C319.235 640.947 317.488 641.235 316.56 639.574C315.656 637.957 314.771 637.313 313.201 636.358L312.579 635.564Z"/>
	<path transform="scale(0.5 0.5)" d="M574.145 279.542L612.991 305.249C614.869 306.396 618.115 307.885 619.516 309.486L620.401 309.881L620.255 312.25L620.745 312.75C619.735 313.376 620.346 313.201 619.312 313.158C618.515 313.125 618.223 313.185 617.531 313.515L616.917 314.279C615.625 315.847 614.703 316.596 612.654 316.888L612.037 317.772C611.075 317.546 609.644 316.336 608.768 315.778L605.944 314.028L595.013 306.877L589.555 303.314L587.274 301.994L577.335 295.427L568.969 289.811L570.029 289.106L571.296 289.436C572.212 287.975 572.561 287.22 572.309 285.497C572.152 284.417 572.057 283.685 572.25 282.6L574.476 281.96L574.145 279.542ZM595.013 306.877L605.944 314.028L608.768 315.778C609.644 316.336 611.075 317.546 612.037 317.772L612.654 316.888C614.703 316.596 615.625 315.847 616.917 314.279L617.531 313.515C618.223 313.185 618.515 313.125 619.312 313.158C620.346 313.201 619.735 313.376 620.745 312.75L620.255 312.25L620.401 309.881L619.516 309.486C618.115 307.885 614.869 306.396 612.991 305.249L606.75 305.245C605.771 304.224 605.209 303.666 604.003 302.997L603.166 302.128C602.581 301.493 602.352 301.266 601.561 300.896C600.445 300.374 599.793 299.478 599 298.561L597.5 298.069L596.397 299C596.472 301.356 596.593 303.059 595.64 305.268L595.013 306.877ZM568.969 289.811L577.335 295.427C577.971 295.202 578.578 295.08 579.006 294.5C580.464 292.527 579.462 289.552 579.261 287.311C577.337 285.87 575.549 284.729 574.631 282.401L574.476 281.96L572.25 282.6C572.057 283.685 572.152 284.417 572.309 285.497C572.561 287.22 572.212 287.975 571.296 289.436L570.029 289.106L568.969 289.811ZM587.274 301.994L589.555 303.314L590.745 302.877C592.681 299.451 591.607 299.929 591.09 296.514L591.046 296C590.065 294.686 589.113 293.946 587.751 293.032L587.25 292.7C586.978 292.038 586.782 291.715 586.265 291.191C585.625 290.543 585.457 290.75 584.601 290.75C585.078 292.406 585.376 293.905 585.005 295.631L584.802 296.513C585.351 297.832 585.524 297.884 586.74 298.67C586.983 299.493 587.135 300.245 587.205 301.098L587.274 301.994Z"/>
	<path transform="scale(0.5 0.5)" d="M587.274 301.994L587.205 301.098C587.135 300.245 586.983 299.493 586.74 298.67C585.524 297.884 585.351 297.832 584.802 296.513L585.005 295.631C585.376 293.905 585.078 292.406 584.601 290.75C585.457 290.75 585.625 290.543 586.265 291.191C586.782 291.715 586.978 292.038 587.25 292.7L587.751 293.032C589.113 293.946 590.065 294.686 591.046 296L591.09 296.514C591.607 299.929 592.681 299.451 590.745 302.877L589.555 303.314L587.274 301.994Z"/>
	<defs>
		<linearGradient id="gradient_10" gradientUnits="userSpaceOnUse" x1="578.85645" y1="292.22482" x2="571.98944" y2="284.92004">
			<stop offset="0" stop-color="black" stop-opacity="0.33725491"/>
			<stop offset="1" stop-color="black" stop-opacity="0.37254903"/>
		</linearGradient>
	</defs>
	<path fill="url(#gradient_10)" transform="scale(0.5 0.5)" d="M568.969 289.811L570.029 289.106L571.296 289.436C572.212 287.975 572.561 287.22 572.309 285.497C572.152 284.417 572.057 283.685 572.25 282.6L574.476 281.96L574.631 282.401C575.549 284.729 577.337 285.87 579.261 287.311C579.462 289.552 580.464 292.527 579.006 294.5C578.578 295.08 577.971 295.202 577.335 295.427L568.969 289.811Z"/>
	<defs>
		<linearGradient id="gradient_11" gradientUnits="userSpaceOnUse" x1="596.57117" y1="301.77429" x2="605.45026" y2="308.92447">
			<stop offset="0" stop-color="black" stop-opacity="0.27058825"/>
			<stop offset="1" stop-color="black" stop-opacity="0.37254903"/>
		</linearGradient>
	</defs>
	<path fill="url(#gradient_11)" transform="scale(0.5 0.5)" d="M595.013 306.877L595.64 305.268C596.593 303.059 596.472 301.356 596.397 299L597.5 298.069L599 298.561C599.793 299.478 600.445 300.374 601.561 300.896C602.352 301.266 602.581 301.493 603.166 302.128L604.003 302.997C605.209 303.666 605.771 304.224 606.75 305.245L612.991 305.249C614.869 306.396 618.115 307.885 619.516 309.486L620.401 309.881L620.255 312.25L620.745 312.75C619.735 313.376 620.346 313.201 619.312 313.158C618.515 313.125 618.223 313.185 617.531 313.515L616.917 314.279C615.625 315.847 614.703 316.596 612.654 316.888L612.037 317.772C611.075 317.546 609.644 316.336 608.768 315.778L605.944 314.028L595.013 306.877ZM608.965 306.551C608.225 307.248 608.231 306.993 608.151 308.104C607.969 310.634 607.707 312.053 605.944 314.028L608.768 315.778C609.644 316.336 611.075 317.546 612.037 317.772L612.654 316.888C614.703 316.596 615.625 315.847 616.917 314.279L617.531 313.515C618.223 313.185 618.515 313.125 619.312 313.158C620.346 313.201 619.735 313.376 620.745 312.75L620.255 312.25L620.401 309.881L619.516 309.486L619.085 309.617C617.553 309.918 615.234 310.212 613.96 309.117C612.639 307.982 611.793 306.961 610.257 305.951L608.965 306.551Z"/>
	<defs>
		<linearGradient id="gradient_12" gradientUnits="userSpaceOnUse" x1="617.18848" y1="310.94403" x2="610.91632" y2="314.45825">
			<stop offset="0" stop-color="black" stop-opacity="0.32156864"/>
			<stop offset="1" stop-color="black" stop-opacity="0.3882353"/>
		</linearGradient>
	</defs>
	<path fill="url(#gradient_12)" transform="scale(0.5 0.5)" d="M608.965 306.551L610.257 305.951C611.793 306.961 612.639 307.982 613.96 309.117C615.234 310.212 617.553 309.918 619.085 309.617L619.516 309.486L620.401 309.881L620.255 312.25L620.745 312.75C619.735 313.376 620.346 313.201 619.312 313.158C618.515 313.125 618.223 313.185 617.531 313.515L616.917 314.279C615.625 315.847 614.703 316.596 612.654 316.888L612.037 317.772C611.075 317.546 609.644 316.336 608.768 315.778L605.944 314.028C607.707 312.053 607.969 310.634 608.151 308.104C608.231 306.993 608.225 307.248 608.965 306.551ZM608.965 306.551C608.225 307.248 608.231 306.993 608.151 308.104C607.969 310.634 607.707 312.053 605.944 314.028L608.768 315.778C610.042 315.45 610.41 315.342 611.349 314.358C612.734 312.909 612.91 311.703 612.897 309.75C611.722 308.083 610.837 307.362 608.965 306.551Z"/>
	<path transform="scale(0.5 0.5)" d="M608.965 306.551C610.837 307.362 611.722 308.083 612.897 309.75C612.91 311.703 612.734 312.909 611.349 314.358C610.41 315.342 610.042 315.45 608.768 315.778L605.944 314.028C607.707 312.053 607.969 310.634 608.151 308.104C608.231 306.993 608.225 307.248 608.965 306.551Z"/>
	<defs>
		<linearGradient id="gradient_13" gradientUnits="userSpaceOnUse" x1="680.98035" y1="345.63687" x2="668.21356" y2="358.08734">
			<stop offset="0" stop-color="black" stop-opacity="0"/>
			<stop offset="1" stop-color="black" stop-opacity="0.031372551"/>
		</linearGradient>
	</defs>
	<path fill="url(#gradient_13)" transform="scale(0.5 0.5)" d="M651.452 330.238L652.936 331.175L698.367 360.17L698.046 361.038L697.731 362.25C695.998 364.07 695.606 363.284 693.582 363.959L692.411 364.765L692.403 365.654C692.384 366.552 692.25 367.005 691.734 367.76L691.943 368.317L690.95 368.863L650.509 342.598C649.049 341.771 647.735 340.894 646.397 339.883L647.17 339.422C647.501 338.226 647.73 336.923 647.763 335.682C647.785 334.847 647.723 334.367 648.169 333.617C648.619 332.861 648.49 333.36 648.685 332.477C648.846 331.742 649.154 331.56 649.652 331C650.442 330.872 650.113 330.99 650.884 330.565L651.452 330.238ZM651.452 330.238L650.884 330.565C650.113 330.99 650.442 330.872 649.652 331C649.154 331.56 648.846 331.742 648.685 332.477C648.49 333.36 648.619 332.861 648.169 333.617C647.723 334.367 647.785 334.847 647.763 335.682C647.73 336.923 647.501 338.226 647.17 339.422L646.397 339.883C647.735 340.894 649.049 341.771 650.509 342.598C651.058 342.431 650.697 342.573 651.512 341.898L652.25 341.278L653 341.832L653.658 341.002C654.741 339.853 654.991 339.269 655.4 337.762L655.533 337.25L657.25 336.854L656 335.579L654.75 335.616L654.25 334.755L652.731 334.855L652.781 334.272C652.183 333.309 652.112 332.86 651.937 331.768L652.936 331.175L651.452 330.238Z"/>
	<defs>
		<linearGradient id="gradient_14" gradientUnits="userSpaceOnUse" x1="651.67139" y1="335.59988" x2="649.68347" y2="338.62073">
			<stop offset="0" stop-color="black" stop-opacity="0.14509805"/>
			<stop offset="1" stop-color="black" stop-opacity="0.18039216"/>
		</linearGradient>
	</defs>
	<path fill="url(#gradient_14)" transform="scale(0.5 0.5)" d="M651.452 330.238L652.936 331.175L651.937 331.768C652.112 332.86 652.183 333.309 652.781 334.272L652.731 334.855L654.25 334.755L654.75 335.616L656 335.579L657.25 336.854L655.533 337.25L655.4 337.762C654.991 339.269 654.741 339.853 653.658 341.002L653 341.832L652.25 341.278L651.512 341.898C650.697 342.573 651.058 342.431 650.509 342.598C649.049 341.771 647.735 340.894 646.397 339.883L647.17 339.422C647.501 338.226 647.73 336.923 647.763 335.682C647.785 334.847 647.723 334.367 648.169 333.617C648.619 332.861 648.49 333.36 648.685 332.477C648.846 331.742 649.154 331.56 649.652 331C650.442 330.872 650.113 330.99 650.884 330.565L651.452 330.238Z"/>
	<defs>
		<linearGradient id="gradient_15" gradientUnits="userSpaceOnUse" x1="533.33972" y1="265.93555" x2="537.75897" y2="257.80298">
			<stop offset="0" stop-color="black" stop-opacity="0.71372551"/>
			<stop offset="1" stop-color="black" stop-opacity="0.76078433"/>
		</linearGradient>
	</defs>
	<path fill="url(#gradient_15)" transform="scale(0.5 0.5)" d="M519.913 257.793C519.488 256.434 519.267 256.231 519.75 254.918L516.259 252.75C516.056 252.216 515.768 251.582 515.712 251C515.56 249.426 516.147 248.635 516.997 247.395C518.137 247.17 520.147 246.494 521.25 246.6C522.938 246.762 525.493 248.626 527.377 249.146L527.952 249.3C532.297 251.535 537.218 255.111 540.915 258.337C545.704 260.762 550.244 264.029 554.812 266.869C557.978 268.838 561.87 270.73 564.601 273.211C567.873 274.795 571.259 277.324 574.145 279.542L574.476 281.96L572.25 282.6C572.057 283.685 572.152 284.417 572.309 285.497C572.561 287.22 572.212 287.975 571.296 289.436L570.029 289.106L568.969 289.811C568.404 289.787 567.077 288.694 566.541 288.348L561.946 285.435L556.496 281.804L555.397 280.941C550.348 278.575 545.056 274.56 540.529 271.264C538.144 270.923 529.578 264.089 527.107 262.312L519.913 257.793ZM561.835 273.008L562.831 274.657L560.479 274.75L560.947 277.999C559.941 279.072 559.315 279.868 558.003 280.502L556.496 281.804L561.946 285.435L566.541 288.348C567.077 288.694 568.404 289.787 568.969 289.811L570.029 289.106L571.296 289.436C572.212 287.975 572.561 287.22 572.309 285.497C572.152 284.417 572.057 283.685 572.25 282.6L574.476 281.96L574.145 279.542C571.259 277.324 567.873 274.795 564.601 273.211L561.835 273.008ZM540.529 271.264C545.056 274.56 550.348 278.575 555.397 280.941L556.496 281.804L558.003 280.502C559.315 279.868 559.941 279.072 560.947 277.999L560.479 274.75L562.831 274.657L561.835 273.008L560.731 272.766C559.931 272.6 559.257 272.433 558.5 272.118C557.601 270.476 555.127 269.861 553.46 269.283L549.085 266.676C548.143 269.218 547.477 270.858 545.5 272.745L545.113 272.489C543.239 271.285 542.669 271.261 540.529 271.264ZM519.913 257.793L527.107 262.312C525.951 260.644 524.656 259.281 522.867 258.278L521.978 257.795C522.235 256.757 522.079 257.052 522.52 256.273C523.296 254.903 523.908 253.711 524.395 252.206C524.635 251.464 525.119 251.359 525.75 250.934C527.327 250.923 528.299 251.058 529.606 251.998C530.69 252.777 531.697 253.08 532.75 253.744C535.495 255.473 537.157 257.242 540.438 258.204L540.915 258.337C537.218 255.111 532.297 251.535 527.952 249.3L527.377 249.146C525.493 248.626 522.938 246.762 521.25 246.6C520.147 246.494 518.137 247.17 516.997 247.395C516.147 248.635 515.56 249.426 515.712 251C515.768 251.582 516.056 252.216 516.259 252.75L519.75 254.918C519.267 256.231 519.488 256.434 519.913 257.793Z"/>
	<defs>
		<linearGradient id="gradient_16" gradientUnits="userSpaceOnUse" x1="520.93225" y1="248.86371" x2="522.65308" y2="254.32111">
			<stop offset="0" stop-color="black" stop-opacity="0.84705883"/>
			<stop offset="1" stop-color="black" stop-opacity="0.89411765"/>
		</linearGradient>
	</defs>
	<path fill="url(#gradient_16)" transform="scale(0.5 0.5)" d="M519.913 257.793C519.488 256.434 519.267 256.231 519.75 254.918L516.259 252.75C516.056 252.216 515.768 251.582 515.712 251C515.56 249.426 516.147 248.635 516.997 247.395C518.137 247.17 520.147 246.494 521.25 246.6C522.938 246.762 525.493 248.626 527.377 249.146L527.952 249.3C532.297 251.535 537.218 255.111 540.915 258.337L540.438 258.204C537.157 257.242 535.495 255.473 532.75 253.744C531.697 253.08 530.69 252.777 529.606 251.998C528.299 251.058 527.327 250.923 525.75 250.934C525.119 251.359 524.635 251.464 524.395 252.206C523.908 253.711 523.296 254.903 522.52 256.273C522.079 257.052 522.235 256.757 521.978 257.795L522.867 258.278C524.656 259.281 525.951 260.644 527.107 262.312L519.913 257.793ZM517.245 248.25C516.994 249.45 516.869 250.524 516.845 251.75L517.5 252.585L519.108 252.714L519.75 251.992C520.547 250.499 520.322 250.34 519.97 248.75L519.25 248.067L517.245 248.25Z"/>
	<path transform="scale(0.5 0.5)" d="M517.245 248.25L519.25 248.067L519.97 248.75C520.322 250.34 520.547 250.499 519.75 251.992L519.108 252.714L517.5 252.585L516.845 251.75C516.869 250.524 516.994 249.45 517.245 248.25Z"/>
	<defs>
		<linearGradient id="gradient_17" gradientUnits="userSpaceOnUse" x1="548.75751" y1="272.35617" x2="545.97797" y2="272.88394">
			<stop offset="0" stop-color="black" stop-opacity="0.65882355"/>
			<stop offset="1" stop-color="black" stop-opacity="0.7019608"/>
		</linearGradient>
	</defs>
	<path fill="url(#gradient_17)" transform="scale(0.5 0.5)" d="M540.529 271.264C542.669 271.261 543.239 271.285 545.113 272.489L545.5 272.745C547.477 270.858 548.143 269.218 549.085 266.676L553.46 269.283C555.127 269.861 557.601 270.476 558.5 272.118C559.257 272.433 559.931 272.6 560.731 272.766L561.835 273.008L562.831 274.657L560.479 274.75L560.947 277.999C559.941 279.072 559.315 279.868 558.003 280.502L556.496 281.804L555.397 280.941C550.348 278.575 545.056 274.56 540.529 271.264ZM553.46 269.283C555.639 271.404 556.447 272.286 557.162 275.25C556.67 276.83 555.636 278.82 556.314 280.35L555.397 280.941L556.496 281.804L558.003 280.502C559.315 279.868 559.941 279.072 560.947 277.999L560.479 274.75L562.831 274.657L561.835 273.008L560.731 272.766C559.931 272.6 559.257 272.433 558.5 272.118C557.601 270.476 555.127 269.861 553.46 269.283Z"/>
	<defs>
		<linearGradient id="gradient_18" gradientUnits="userSpaceOnUse" x1="558.15051" y1="273.53979" x2="557.81342" y2="279.04977">
			<stop offset="0" stop-color="black" stop-opacity="0.61960787"/>
			<stop offset="1" stop-color="black" stop-opacity="0.67058825"/>
		</linearGradient>
	</defs>
	<path fill="url(#gradient_18)" transform="scale(0.5 0.5)" d="M553.46 269.283C555.127 269.861 557.601 270.476 558.5 272.118C559.257 272.433 559.931 272.6 560.731 272.766L561.835 273.008L562.831 274.657L560.479 274.75L560.947 277.999C559.941 279.072 559.315 279.868 558.003 280.502L556.496 281.804L555.397 280.941L556.314 280.35C555.636 278.82 556.67 276.83 557.162 275.25C556.447 272.286 555.639 271.404 553.46 269.283Z"/>
	<path transform="scale(0.5 0.5)" d="M561.835 273.008L564.601 273.211C567.873 274.795 571.259 277.324 574.145 279.542L574.476 281.96L572.25 282.6C572.057 283.685 572.152 284.417 572.309 285.497C572.561 287.22 572.212 287.975 571.296 289.436L570.029 289.106L568.969 289.811C568.404 289.787 567.077 288.694 566.541 288.348L561.946 285.435L556.496 281.804L558.003 280.502C559.315 279.868 559.941 279.072 560.947 277.999L560.479 274.75L562.831 274.657L561.835 273.008ZM561.835 273.008L562.831 274.657L563.081 275.059C563.834 276.244 564.524 277.04 565.58 277.952C566.318 278.589 567.111 279.305 567.305 280.251C567.462 281.018 567.698 281.298 568.122 281.914C568.821 282.929 568.94 283.537 569.071 284.75C568.513 285.766 567.768 286.74 567.737 287.913L566.541 288.348C567.077 288.694 568.404 289.787 568.969 289.811L570.029 289.106L571.296 289.436C572.212 287.975 572.561 287.22 572.309 285.497C572.152 284.417 572.057 283.685 572.25 282.6L574.476 281.96L574.145 279.542C571.259 277.324 567.873 274.795 564.601 273.211L561.835 273.008ZM560.947 277.999C559.941 279.072 559.315 279.868 558.003 280.502L556.496 281.804L561.946 285.435L563.514 283.5L563.234 282.479L561.25 280.823C561.617 279.9 561.642 279.079 561.695 278.094L560.947 277.999Z"/>
	<defs>
		<linearGradient id="gradient_19" gradientUnits="userSpaceOnUse" x1="560.2984" y1="280.42612" x2="561.11383" y2="283.71942">
			<stop offset="0" stop-color="black" stop-opacity="0.5411765"/>
			<stop offset="1" stop-color="black" stop-opacity="0.57254905"/>
		</linearGradient>
	</defs>
	<path fill="url(#gradient_19)" transform="scale(0.5 0.5)" d="M560.947 277.999L561.695 278.094C561.642 279.079 561.617 279.9 561.25 280.823L563.234 282.479L563.514 283.5L561.946 285.435L556.496 281.804L558.003 280.502C559.315 279.868 559.941 279.072 560.947 277.999Z"/>
	<defs>
		<linearGradient id="gradient_20" gradientUnits="userSpaceOnUse" x1="569.71381" y1="283.80042" x2="568.01971" y2="284.07898">
			<stop offset="0" stop-color="black" stop-opacity="0.53333336"/>
			<stop offset="1" stop-color="black" stop-opacity="0.56862748"/>
		</linearGradient>
	</defs>
	<path fill="url(#gradient_20)" transform="scale(0.5 0.5)" d="M561.835 273.008L564.601 273.211C567.873 274.795 571.259 277.324 574.145 279.542L574.476 281.96L572.25 282.6C572.057 283.685 572.152 284.417 572.309 285.497C572.561 287.22 572.212 287.975 571.296 289.436L570.029 289.106L568.969 289.811C568.404 289.787 567.077 288.694 566.541 288.348L567.737 287.913C567.768 286.74 568.513 285.766 569.071 284.75C568.94 283.537 568.821 282.929 568.122 281.914C567.698 281.298 567.462 281.018 567.305 280.251C567.111 279.305 566.318 278.589 565.58 277.952C564.524 277.04 563.834 276.244 563.081 275.059L562.831 274.657L561.835 273.008Z"/>
	<path transform="scale(0.5 0.5)" d="M475.459 731.857L511.061 753.223C515.988 750.674 521.162 746.78 526.418 745.128C524.656 746.622 522.532 747.688 520.75 749.173C519.462 750.246 518.462 751.89 516.934 752.63C514.681 753.721 512.116 754.367 509.789 755.427C507.516 754.705 505.19 753.82 503.25 752.404C501.522 751.143 500.157 749.537 498.312 748.383C495.558 746.661 492.451 745.502 489.75 743.758C488.038 742.653 486.688 741.123 484.928 740.043C481.161 737.733 477.556 736.129 474.641 732.681L475.459 731.857Z"/>
	<defs>
		<linearGradient id="gradient_21" gradientUnits="userSpaceOnUse" x1="731.06238" y1="503.63934" x2="710.02173" y2="504.76675">
			<stop offset="0" stop-color="black" stop-opacity="0.71764708"/>
			<stop offset="1" stop-color="black" stop-opacity="0.98039216"/>
		</linearGradient>
	</defs>
	<path fill="url(#gradient_21)" transform="scale(0.5 0.5)" d="M698.367 360.17L698.69 360.331C702.329 362.102 705.73 364.405 709.159 366.548C715.897 370.759 723.976 375.09 726.605 383.095C727.652 386.283 727.733 389.855 727.793 393.187L727.465 431.599L727.377 520.728L727.49 587.009C727.493 597.963 728.041 609.252 727.376 620.175C727.12 624.379 726.359 628.681 724.359 632.43C722.168 636.538 717.98 640.105 713.925 642.319C714.313 641.515 714.66 641.055 715.339 640.468C717.149 638.901 718.62 637.625 718.941 635.125C717.828 635.807 717.789 635.58 716.56 635.417C717.335 634.048 718.024 633.276 719.247 632.281L719.638 631.97L719.715 628.125L718.75 627.5C718.284 625.893 718.908 624.519 718.64 622.916L718.019 623.003C717.007 624.336 716.501 625.656 715.919 627.217L716.399 384.77C714.143 381.803 708.642 378.993 705.018 378.401C701.686 376.218 697.961 374.18 694.965 371.557L694.665 371.223C693.306 370.596 692.169 369.721 690.95 368.863L691.943 368.317L691.734 367.76C692.25 367.005 692.384 366.552 692.403 365.654L692.411 364.765L693.582 363.959C695.606 363.284 695.998 364.07 697.731 362.25L698.046 361.038L698.367 360.17ZM698.367 360.17L698.046 361.038L697.731 362.25C695.998 364.07 695.606 363.284 693.582 363.959L692.411 364.765L692.403 365.654C692.384 366.552 692.25 367.005 691.734 367.76L691.943 368.317L690.95 368.863C692.169 369.721 693.306 370.596 694.665 371.223L694.965 371.557C697.855 372.129 700.427 374.094 702.884 375.664L707.199 371.68C706.476 366.969 701.88 363.539 698.69 360.331L698.367 360.17ZM725.1 396.25C722.566 403.186 724.375 413.212 724.595 420.5C724.79 426.961 724.637 433.285 725.25 439.745L725.711 396.436L725.1 396.25Z"/>
	<path transform="scale(0.5 0.5)" d="M725.1 396.25L725.711 396.436L725.25 439.745C724.637 433.285 724.79 426.961 724.595 420.5C724.375 413.212 722.566 403.186 725.1 396.25Z"/>
	<defs>
		<linearGradient id="gradient_22" gradientUnits="userSpaceOnUse" x1="693.66107" y1="366.59274" x2="697.99677" y2="367.51529">
			<stop offset="0" stop-color="black" stop-opacity="0.094117649"/>
			<stop offset="1" stop-color="black" stop-opacity="0.12941177"/>
		</linearGradient>
	</defs>
	<path fill="url(#gradient_22)" transform="scale(0.5 0.5)" d="M698.367 360.17L698.69 360.331C701.88 363.539 706.476 366.969 707.199 371.68L702.884 375.664C700.427 374.094 697.855 372.129 694.965 371.557L694.665 371.223C693.306 370.596 692.169 369.721 690.95 368.863L691.943 368.317L691.734 367.76C692.25 367.005 692.384 366.552 692.403 365.654L692.411 364.765L693.582 363.959C695.606 363.284 695.998 364.07 697.731 362.25L698.046 361.038L698.367 360.17ZM690.95 368.863C692.169 369.721 693.306 370.596 694.665 371.223C696.512 370.396 695.506 369.987 696.25 368.358L694.535 367.223C693.716 366.41 693.71 365.034 693.582 363.959L692.411 364.765L692.403 365.654C692.384 366.552 692.25 367.005 691.734 367.76L691.943 368.317L690.95 368.863Z"/>
	<path transform="scale(0.5 0.5)" d="M690.95 368.863L691.943 368.317L691.734 367.76C692.25 367.005 692.384 366.552 692.403 365.654L692.411 364.765L693.582 363.959C693.71 365.034 693.716 366.41 694.535 367.223L696.25 368.358C695.506 369.987 696.512 370.396 694.665 371.223C693.306 370.596 692.169 369.721 690.95 368.863Z"/>
	<defs>
		<linearGradient id="gradient_23" gradientUnits="userSpaceOnUse" x1="416.17111" y1="356.40112" x2="389.81055" y2="301.81296">
			<stop offset="0" stop-color="black" stop-opacity="0.81176472"/>
			<stop offset="1" stop-color="black"/>
		</linearGradient>
	</defs>
	<path fill="url(#gradient_23)" transform="scale(0.5 0.5)" d="M504.617 244.727C509.195 242.565 512.35 241.811 517.25 243.611C520.947 244.969 524.764 247.011 527.952 249.3L527.377 249.146C525.493 248.626 522.938 246.762 521.25 246.6C520.147 246.494 518.137 247.17 516.997 247.395C516.147 248.635 515.56 249.426 515.712 251C515.768 251.582 516.056 252.216 516.259 252.75L519.75 254.918C519.267 256.231 519.488 256.434 519.913 257.793C518.078 256.691 515.202 255.804 513.932 254.098C512.085 254.201 510.428 254.356 508.773 255.246C502.177 258.792 495.856 263.668 489.626 267.832L445.001 296.768C441.833 298.691 438.771 301.108 435.561 302.869C432.385 305.947 427.738 308.445 424.026 310.916C420.545 313.233 416.736 316.289 412.97 318.002L411.913 318.89L407.126 321.934L339.141 365.771L324.88 374.755C321.465 376.734 317.444 378.346 314.285 380.676C312.754 381.805 309.158 384.877 308.653 386.762C308.17 388.56 308.198 391.016 308.057 392.882C307.603 398.915 307.598 404.87 307.615 410.916L307.794 445.473L307.389 500.32L306.986 500.331C306.828 506.313 306.723 512.135 307.855 518.048L307.676 518.861C307.505 519.612 307.297 520.074 306.997 520.803C306.206 522.724 306.502 524.104 307.25 525.966C308.601 526.942 308.582 527.314 308.886 528.981C309.284 531.158 308.459 533.8 308.463 536.062L308.361 570.19C307.009 574.185 307.433 579.661 307.214 583.885L306.675 577.986C304.815 585.091 303.963 590.558 304.586 597.961C304.566 599.259 304.661 600.514 304.25 601.755C304.263 599.218 304.658 596.023 304.016 593.584L303.375 593.753L303.248 591.673L303.5 592.5L304.242 592.748L304.243 591.5L303.25 590.755L303.247 589.357C303.638 589.964 303.39 589.639 304.038 590.292C304.357 589.054 303.575 588.281 302.992 587.167C301.582 584.475 301.735 581.995 300.858 579.25C299.525 575.078 299.891 570.022 299.764 565.629L299.104 530.679L299.07 530.188C299.231 525.619 299.809 520.074 298.926 515.62C298.643 514.192 298.663 512.773 298.636 511.321L298.247 511.337C298.245 513.328 298.493 515.512 297.574 517.328L297.006 428.485L296.948 402.835C296.939 397.762 296.604 392.407 297.329 387.392L297.464 386.5C298.405 380.034 301.086 376.637 306.129 372.755C311.673 368.401 317.861 365.244 323.782 361.462L362 337.02L400.484 311.944C408.605 306.621 416.772 300.71 425.433 296.303L450.4 279.928L465.431 269.25L481.279 259.36C489.028 254.389 496.169 248.575 504.617 244.727ZM305.094 410.347C303.916 415.202 304.142 420.604 303.766 425.583C302.268 445.43 303.091 465.965 298.824 485.464C297.927 489.561 297.992 496.222 298.433 500.439L298.636 511.321C298.663 512.773 298.643 514.192 298.926 515.62C299.809 520.074 299.231 525.619 299.07 530.188L299.104 530.679L299.764 565.629C299.891 570.022 299.525 575.078 300.858 579.25C301.735 581.995 301.582 584.475 302.992 587.167C303.575 588.281 304.357 589.054 304.038 590.292C303.39 589.639 303.638 589.964 303.247 589.357L303.25 590.755L304.243 591.5L304.242 592.748L303.5 592.5L303.248 591.673L303.375 593.753L304.016 593.584C304.658 596.023 304.263 599.218 304.25 601.755C304.661 600.514 304.566 599.259 304.586 597.961C303.963 590.558 304.815 585.091 306.675 577.986L307.214 583.885C307.433 579.661 307.009 574.185 308.361 570.19L308.463 536.062C308.459 533.8 309.284 531.158 308.886 528.981C308.582 527.314 308.601 526.942 307.25 525.966C306.502 524.104 306.206 522.724 306.997 520.803C307.297 520.074 307.505 519.612 307.676 518.861L307.855 518.048C306.723 512.135 306.828 506.313 306.986 500.331L306.9 475.181L306.952 434.52C306.426 429.488 306.625 424.12 305.397 419.226C305.063 418.152 305.289 416.433 305.284 415.292L305.245 406.257L305.094 410.347ZM298.247 511.337L298.636 511.321L298.433 500.439C297.992 496.222 297.927 489.561 298.824 485.464C303.091 465.965 302.268 445.43 303.766 425.583C304.142 420.604 303.916 415.202 305.094 410.347L305.245 406.257L305.284 415.292C305.289 416.433 305.063 418.152 305.397 419.226C306.625 424.12 306.426 429.488 306.952 434.52L306.983 411.595C306.929 403.912 307.1 396.264 305.18 388.755C302.362 394.57 303.045 399.368 302.38 405.456C301.564 412.93 300.093 420.572 299.577 428.041L299.076 454.329L298.242 469L298.247 511.337ZM504.617 244.727C503.849 245.784 503.113 246.803 502.5 247.961C500.548 249.097 498.274 250.136 496.679 251.75L496.571 252.779L499.247 250.997L499.967 250.471C500.975 249.832 501.708 249.866 502.864 249.805L503.755 250.75L503.502 251.625L503.5 252.25L503.268 253.367C506.003 252.919 508.202 252.525 510.941 253.132C512.586 253.496 510.204 252.994 512.25 253.255C512.896 253.338 513.426 253.735 513.932 254.098C515.202 255.804 518.078 256.691 519.913 257.793C519.488 256.434 519.267 256.231 519.75 254.918L516.259 252.75C516.056 252.216 515.768 251.582 515.712 251C515.56 249.426 516.147 248.635 516.997 247.395C518.137 247.17 520.147 246.494 521.25 246.6C522.938 246.762 525.493 248.626 527.377 249.146L527.952 249.3C524.764 247.011 520.947 244.969 517.25 243.611C512.35 241.811 509.195 242.565 504.617 244.727ZM412.97 318.002C416.736 316.289 420.545 313.233 424.026 310.916C427.738 308.445 432.385 305.947 435.561 302.869L434.637 302.572C431.172 304.608 428.042 307.118 424.502 309.002L423.642 309.781L423.131 309.538L422.5 309.948L421.355 310.273C419.939 310.672 419.139 311.156 418.19 312.292C416.095 314.798 413.122 314.009 412.97 318.002ZM407.126 321.934L411.913 318.89C410.309 318.014 409.046 318.608 407.755 317.75L408.337 316.663C406.887 316.533 405.576 316.492 404.125 316.625L403.16 317.75L404.125 319.375C405.092 319.267 405.062 319.159 405.998 319.625L407.126 321.934Z"/>
	<defs>
		<linearGradient id="gradient_24" gradientUnits="userSpaceOnUse" x1="405.87067" y1="317.08939" x2="407.84802" y2="319.95056">
			<stop offset="0" stop-color="black" stop-opacity="0.9254902"/>
			<stop offset="1" stop-color="black" stop-opacity="0.98431373"/>
		</linearGradient>
	</defs>
	<path fill="url(#gradient_24)" transform="scale(0.5 0.5)" d="M407.126 321.934L405.998 319.625C405.062 319.159 405.092 319.267 404.125 319.375L403.16 317.75L404.125 316.625C405.576 316.492 406.887 316.533 408.337 316.663L407.755 317.75C409.046 318.608 410.309 318.014 411.913 318.89L407.126 321.934Z"/>
	<path transform="scale(0.5 0.5)" d="M412.97 318.002C413.122 314.009 416.095 314.798 418.19 312.292C419.139 311.156 419.939 310.672 421.355 310.273L422.5 309.948L423.131 309.538L423.642 309.781L424.502 309.002C428.042 307.118 431.172 304.608 434.637 302.572L435.561 302.869C432.385 305.947 427.738 308.445 424.026 310.916C420.545 313.233 416.736 316.289 412.97 318.002Z"/>
	<defs>
		<linearGradient id="gradient_25" gradientUnits="userSpaceOnUse" x1="507.66696" y1="250.65511" x2="519.23468" y2="246.09531">
			<stop offset="0" stop-color="black" stop-opacity="0.94509804"/>
			<stop offset="1" stop-color="black"/>
		</linearGradient>
	</defs>
	<path fill="url(#gradient_25)" transform="scale(0.5 0.5)" d="M504.617 244.727C509.195 242.565 512.35 241.811 517.25 243.611C520.947 244.969 524.764 247.011 527.952 249.3L527.377 249.146C525.493 248.626 522.938 246.762 521.25 246.6C520.147 246.494 518.137 247.17 516.997 247.395C516.147 248.635 515.56 249.426 515.712 251C515.768 251.582 516.056 252.216 516.259 252.75L519.75 254.918C519.267 256.231 519.488 256.434 519.913 257.793C518.078 256.691 515.202 255.804 513.932 254.098C513.426 253.735 512.896 253.338 512.25 253.255C510.204 252.994 512.586 253.496 510.941 253.132C508.202 252.525 506.003 252.919 503.268 253.367L503.5 252.25L503.502 251.625L503.755 250.75L502.864 249.805C501.708 249.866 500.975 249.832 499.967 250.471L499.247 250.997L496.571 252.779L496.679 251.75C498.274 250.136 500.548 249.097 502.5 247.961C503.113 246.803 503.849 245.784 504.617 244.727Z"/>
	<path transform="scale(0.5 0.5)" d="M306.129 372.755C311.673 368.401 317.861 365.244 323.782 361.462L362 337.02L400.484 311.944C408.605 306.621 416.772 300.71 425.433 296.303L425.869 297.469L425.247 297.804C424.532 298.209 424.123 298.585 423.5 299.095C422.105 300.238 421.178 300.665 419.5 301.25C417.691 301.881 416.467 303.192 414.944 304.258C413.899 304.99 414.521 304.454 413.755 305.5C413.049 306.465 411.097 307.805 410 308.255L408.502 309.002L407.751 309.347C406.841 309.803 406.3 310.411 405.502 311.002L404.255 311.75L404 312.255L401.75 313.771C401.01 314.264 400.28 314.588 399.502 315.002L397.5 316.255C392.88 318.986 388.236 322.594 383.409 324.854C381.328 325.829 380.107 327.723 378.326 329.092C374.744 331.843 370.636 332.942 367.494 336.398L367.25 335.245L365.766 335.969C361.759 337.892 358.172 340.926 354.36 343.213L327.745 360.25L328.245 360.75C327.188 361.453 326.981 360.87 326.245 361.25C324.866 361.962 324.126 363.714 322.498 364.498L321.5 365.245C319.866 366.434 317.817 367.607 315.998 368.498C315.061 368.956 314.22 369.379 313.232 369.723C311.905 370.184 310.877 370.996 309.498 371.497L308.584 372.038C307.715 372.568 307.166 372.708 306.129 372.755Z"/>
	<path transform="scale(0.5 0.5)" d="M298.247 511.337L298.242 469L299.076 454.329L299.577 428.041C300.093 420.572 301.564 412.93 302.38 405.456C303.045 399.368 302.362 394.57 305.18 388.755C307.1 396.264 306.929 403.912 306.983 411.595L306.952 434.52C306.426 429.488 306.625 424.12 305.397 419.226C305.063 418.152 305.289 416.433 305.284 415.292L305.245 406.257L305.094 410.347C303.916 415.202 304.142 420.604 303.766 425.583C302.268 445.43 303.091 465.965 298.824 485.464C297.927 489.561 297.992 496.222 298.433 500.439L298.636 511.321L298.247 511.337Z"/>
	<defs>
		<linearGradient id="gradient_26" gradientUnits="userSpaceOnUse" x1="299.14801" y1="503.59323" x2="306.70654" y2="503.46155">
			<stop offset="0" stop-color="black" stop-opacity="0"/>
			<stop offset="1" stop-color="black" stop-opacity="0.047058824"/>
		</linearGradient>
	</defs>
	<path fill="url(#gradient_26)" transform="scale(0.5 0.5)" d="M305.094 410.347L305.245 406.257L305.284 415.292C305.289 416.433 305.063 418.152 305.397 419.226C306.625 424.12 306.426 429.488 306.952 434.52L306.9 475.181L306.986 500.331C306.828 506.313 306.723 512.135 307.855 518.048L307.676 518.861C307.505 519.612 307.297 520.074 306.997 520.803C306.206 522.724 306.502 524.104 307.25 525.966C308.601 526.942 308.582 527.314 308.886 528.981C309.284 531.158 308.459 533.8 308.463 536.062L308.361 570.19C307.009 574.185 307.433 579.661 307.214 583.885L306.675 577.986C304.815 585.091 303.963 590.558 304.586 597.961C304.566 599.259 304.661 600.514 304.25 601.755C304.263 599.218 304.658 596.023 304.016 593.584L303.375 593.753L303.248 591.673L303.5 592.5L304.242 592.748L304.243 591.5L303.25 590.755L303.247 589.357C303.638 589.964 303.39 589.639 304.038 590.292C304.357 589.054 303.575 588.281 302.992 587.167C301.582 584.475 301.735 581.995 300.858 579.25C299.525 575.078 299.891 570.022 299.764 565.629L299.104 530.679L299.07 530.188C299.231 525.619 299.809 520.074 298.926 515.62C298.643 514.192 298.663 512.773 298.636 511.321L298.433 500.439C297.992 496.222 297.927 489.561 298.824 485.464C303.091 465.965 302.268 445.43 303.766 425.583C304.142 420.604 303.916 415.202 305.094 410.347ZM305.094 410.347C303.916 415.202 304.142 420.604 303.766 425.583C302.268 445.43 303.091 465.965 298.824 485.464C297.927 489.561 297.992 496.222 298.433 500.439L299.205 503C301.613 496.66 301.107 489.898 301.74 483.25C302.188 478.547 303.417 473.955 303.866 469.25C305.711 449.892 305.838 429.791 305.094 410.347ZM305.397 419.226L305.24 443.171C305.251 450.444 305.026 457.589 306.256 464.75C306.837 468.131 306.411 471.763 306.9 475.181L306.952 434.52C306.426 429.488 306.625 424.12 305.397 419.226Z"/>
	<path transform="scale(0.5 0.5)" d="M305.397 419.226C306.625 424.12 306.426 429.488 306.952 434.52L306.9 475.181C306.411 471.763 306.837 468.131 306.256 464.75C305.026 457.589 305.251 450.444 305.24 443.171L305.397 419.226Z"/>
	<path transform="scale(0.5 0.5)" d="M305.094 410.347C305.838 429.791 305.711 449.892 303.866 469.25C303.417 473.955 302.188 478.547 301.74 483.25C301.107 489.898 301.613 496.66 299.205 503L298.433 500.439C297.992 496.222 297.927 489.561 298.824 485.464C303.091 465.965 302.268 445.43 303.766 425.583C304.142 420.604 303.916 415.202 305.094 410.347Z"/>
	<path fill="#0AD388" transform="scale(0.5 0.5)" d="M435.561 302.869C438.771 301.108 441.833 298.691 445.001 296.768L489.626 267.832C495.856 263.668 502.177 258.792 508.773 255.246C510.428 254.356 512.085 254.201 513.932 254.098C515.202 255.804 518.078 256.691 519.913 257.793L527.107 262.312C529.578 264.089 538.144 270.923 540.529 271.264C545.056 274.56 550.348 278.575 555.397 280.941L556.496 281.804L561.946 285.435L566.541 288.348C567.077 288.694 568.404 289.787 568.969 289.811L577.335 295.427L587.274 301.994L589.555 303.314L595.013 306.877L605.944 314.028L608.768 315.778C609.644 316.336 611.075 317.546 612.037 317.772L617.819 321.612L621.443 323.856L623.006 324.756L630.004 329.341C632.216 330.816 635.063 333.282 637.509 334.148L646.397 339.883C647.735 340.894 649.049 341.771 650.509 342.598L690.95 368.863C692.169 369.721 693.306 370.596 694.665 371.223L694.965 371.557C697.961 374.18 701.686 376.218 705.018 378.401C679.467 394.2 653.138 409.103 629.25 427.346C627.664 426.954 626.398 426.418 624.949 425.667L548.833 378.682L526.932 365.113C522.694 362.439 519.11 359.671 514.458 357.648C511.346 358.492 508.146 359.355 505.25 360.799C498.665 364.082 492.345 368.268 486 371.998L440.614 399.301L416.286 413.782C411.497 416.567 406.42 419.131 401.857 422.273C399.275 424.051 396.873 426.049 395.25 428.782C394.378 430.251 393.694 432.065 393.497 433.77C392.965 438.381 393.278 443.335 393.272 447.981L393.28 474.903L393.553 553.952L393.235 563.768C386.732 561.111 381.251 557.261 375.196 553.799C360.555 545.431 345.859 536.349 330.649 529.105L322.624 524.562C320.391 523.058 318.166 521.496 315.824 520.166C313.838 519.038 311.368 517.952 309.75 516.347C309.166 515.768 307.977 514.44 307.693 513.663C307.341 512.703 307.462 510.827 307.432 509.75L307.389 500.32L307.794 445.473L307.615 410.916C307.598 404.87 307.603 398.915 308.057 392.882C308.198 391.016 308.17 388.56 308.653 386.762C309.158 384.877 312.754 381.805 314.285 380.676C317.444 378.346 321.465 376.734 324.88 374.755L339.141 365.771L407.126 321.934L411.913 318.89L412.97 318.002C416.736 316.289 420.545 313.233 424.026 310.916C427.738 308.445 432.385 305.947 435.561 302.869Z"/>
	<defs>
		<linearGradient id="gradient_27" gradientUnits="userSpaceOnUse" x1="460.51111" y1="425.10297" x2="628.55609" y2="684.39459">
			<stop offset="0" stop-color="#240048" stop-opacity="0.87058824"/>
			<stop offset="1" stop-color="#250048"/>
		</linearGradient>
	</defs>
	<path fill="url(#gradient_27)" transform="scale(0.5 0.5)" d="M393.553 553.952L393.28 474.903L393.272 447.981C393.278 443.335 392.965 438.381 393.497 433.77C393.694 432.065 394.378 430.251 395.25 428.782C396.873 426.049 399.275 424.051 401.857 422.273C406.42 419.131 411.497 416.567 416.286 413.782L440.614 399.301L486 371.998C492.345 368.268 498.665 364.082 505.25 360.799C508.146 359.355 511.346 358.492 514.458 357.648C519.11 359.671 522.694 362.439 526.932 365.113L548.833 378.682L624.949 425.667C626.398 426.418 627.664 426.954 629.25 427.346C653.138 409.103 679.467 394.2 705.018 378.401C708.642 378.993 714.143 381.803 716.399 384.77L715.919 627.217C716.501 625.656 717.007 624.336 718.019 623.003L718.64 622.916C718.908 624.519 718.284 625.893 718.75 627.5L719.715 628.125L719.638 631.97L719.247 632.281C718.024 633.276 717.335 634.048 716.56 635.417C717.789 635.58 717.828 635.807 718.941 635.125C718.62 637.625 717.149 638.901 715.339 640.468C714.66 641.055 714.313 641.515 713.925 642.319C709.462 645.757 704.142 648.881 699.117 651.436L686.622 658.762L685.953 659.142L677.43 664.352C675.472 665.599 673.509 667.018 671.423 668.034L666.029 671.359L660.734 675.022L659.841 675.192C657.532 676.611 655.129 678.382 652.607 679.365L648.56 681.815L636.816 688.943L635.306 687.569L635 687.255L634 688C633.184 687.413 632.707 687.27 631.722 687.251L630.75 687.245L629.755 686C628.977 685.737 629.116 685.896 628.636 685.416L627.369 684.056L606.921 696.468C604.1 698.198 601.827 700.095 598.746 701.404C596.855 702.208 595.146 703.556 593.351 704.579L580.5 712.059L545.1 733.627L532.788 741.384C531.414 742.267 527.895 745.11 526.418 745.128C521.162 746.78 515.988 750.674 511.061 753.223L475.459 731.857L474.641 732.681L386.152 679.266C384.193 677.604 382.477 676.656 380.142 675.662C377.768 674.084 374.901 673.579 372.691 671.664C370.319 669.608 367.992 668.513 365.144 667.292C363.632 666.086 361.667 665.394 360 664.391C357.735 663.028 355.558 661.431 353.407 659.892C351.977 655.428 349.623 656.424 346.889 653.663C346.172 652.939 346.606 653.17 345.666 652.819L345 652.59C343.802 652.049 343.472 650.783 343.041 649.652L343.03 649.607L330.492 642.364C324.071 638.905 317.737 635.524 312.114 630.839L311.147 629.377C309.492 626.961 309.471 625.401 309.45 622.578C308.672 622.041 308.63 622.115 307.75 622.032C306.989 619.193 307.475 615.253 307.457 612.256C307.021 614.792 306.924 616.916 307.052 619.487C306.645 618.369 306.634 617.483 305.543 616.918L304.918 616.857L304.937 613.68C305.325 610.418 306.453 603.882 305.525 600.887L304.586 597.961C303.963 590.558 304.815 585.091 306.675 577.986L307.214 583.885C307.433 579.661 307.009 574.185 308.361 570.19L308.463 536.062C308.459 533.8 309.284 531.158 308.886 528.981C308.582 527.314 308.601 526.942 307.25 525.966C306.502 524.104 306.206 522.724 306.997 520.803C307.297 520.074 307.505 519.612 307.676 518.861L307.855 518.048C306.723 512.135 306.828 506.313 306.986 500.331L307.389 500.32L307.432 509.75C307.462 510.827 307.341 512.703 307.693 513.663C307.977 514.44 309.166 515.768 309.75 516.347C311.368 517.952 313.838 519.038 315.824 520.166C318.166 521.496 320.391 523.058 322.624 524.562L330.649 529.105C345.859 536.349 360.555 545.431 375.196 553.799C381.251 557.261 386.732 561.111 393.235 563.768L393.553 553.952ZM393.553 553.952L393.648 554.515L394.301 563.575L462.131 599.029L484.015 610.55L502.038 619.66C504.428 620.724 507.529 622.275 510.128 622.487C511.532 621.678 513.01 620.661 514.546 620.158C521.465 614.901 529.066 610.905 536.464 606.406L577.123 581.763L592.833 571.556L607.028 563.236C613.93 558.911 620.812 554.003 628.339 550.846L628.652 550.548C629.76 549.381 629.929 548.372 629.979 546.81C630.13 542.039 629.416 536.821 629.308 531.988L629.102 499.495L629.142 455.561L629.349 429.76L624.949 425.667L548.833 378.682L526.932 365.113C522.694 362.439 519.11 359.671 514.458 357.648C511.346 358.492 508.146 359.355 505.25 360.799C498.665 364.082 492.345 368.268 486 371.998L440.614 399.301L416.286 413.782C411.497 416.567 406.42 419.131 401.857 422.273C399.275 424.051 396.873 426.049 395.25 428.782C394.378 430.251 393.694 432.065 393.497 433.77C392.965 438.381 393.278 443.335 393.272 447.981L393.28 474.903L393.553 553.952ZM343.041 649.652C343.472 650.783 343.802 652.049 345 652.59L345.666 652.819C346.606 653.17 346.172 652.939 346.889 653.663C349.623 656.424 351.977 655.428 353.407 659.892C355.558 661.431 357.735 663.028 360 664.391C361.667 665.394 363.632 666.086 365.144 667.292C367.992 668.513 370.319 669.608 372.691 671.664C374.901 673.579 377.768 674.084 380.142 675.662C382.477 676.656 384.193 677.604 386.152 679.266L474.641 732.681L475.459 731.857L343.041 649.652ZM307.855 518.048L307.676 518.861C307.505 519.612 307.297 520.074 306.997 520.803C306.206 522.724 306.502 524.104 307.25 525.966C308.601 526.942 308.582 527.314 308.886 528.981C309.284 531.158 308.459 533.8 308.463 536.062L308.361 570.19C307.009 574.185 307.433 579.661 307.214 583.885L306.675 577.986C304.815 585.091 303.963 590.558 304.586 597.961L305.525 600.887C306.453 603.882 305.325 610.418 304.937 613.68L304.918 616.857L305.543 616.918C306.634 617.483 306.645 618.369 307.052 619.487C306.924 616.916 307.021 614.792 307.457 612.256C307.475 615.253 306.989 619.193 307.75 622.032C308.63 622.115 308.672 622.041 309.45 622.578C310.139 609.743 309.629 597.104 309.535 584.277L309.838 546.147C309.897 537.933 309.072 528.76 310.183 520.657C310.251 520.166 308.318 519.006 307.855 518.048ZM690.406 645.043C689.316 645.835 688.296 646.599 687.311 647.519C685.034 649.645 681.23 650.714 678.545 652.449L677.878 652.666L675.156 654.426C675.315 655.447 675.618 656.26 675.268 657.21C674.815 658.438 675.25 661.071 675.784 662.25L676.409 663.25L676.57 663.754L677.43 664.352L685.953 659.142L686.622 658.762L699.117 651.436L699.432 650.891C700.009 649.989 700.479 649.51 700.59 648.397C700.707 647.216 701.547 646.446 702.25 645.477C703.006 645.341 703.624 645.253 704.398 645.305L705 645.364L705.507 644.75L706.465 644.395L706.335 643.589C704.765 642.57 702.721 643.489 700.856 643.07L700.025 642.858C698.754 642.649 697.313 642.537 696.25 643.245C696.549 644.159 696.497 643.737 696.497 644.497C695.686 644.949 695.249 645.119 694.297 645.204L693.5 645.245L692.75 645.745L690.406 645.043ZM640.584 676.617C638.199 677.469 636.991 678.711 634.92 679.938C632.421 681.419 629.785 682.38 627.369 684.056L628.636 685.416C629.116 685.896 628.977 685.737 629.755 686L630.75 687.245L631.722 687.251C632.707 687.27 633.184 687.413 634 688L635 687.255L635.306 687.569L636.816 688.943L648.56 681.815L652.607 679.365C655.129 678.382 657.532 676.611 659.841 675.192L660.734 675.022L659.996 673L660.207 672.25L659.689 671.518C658.694 670.2 657.103 669.57 655.495 669.451C654.223 669.358 654.915 669.55 653.65 669.153L652.957 668.906L640.584 676.617ZM715.919 627.217C709.675 634.549 701.974 637.729 693.783 642.232L677 652.013C674.446 653.526 670.288 655.497 668.555 657.853C670.87 656.833 673.03 655.821 675.156 654.426L677.878 652.666L678.545 652.449C681.23 650.714 685.034 649.645 687.311 647.519C688.296 646.599 689.316 645.835 690.406 645.043L692.75 645.745L693.5 645.245L694.297 645.204C695.249 645.119 695.686 644.949 696.497 644.497C696.497 643.737 696.549 644.159 696.25 643.245C697.313 642.537 698.754 642.649 700.025 642.858L700.856 643.07C702.721 643.489 704.765 642.57 706.335 643.589L706.465 644.395L705.507 644.75L705 645.364L704.398 645.305C703.624 645.253 703.006 645.341 702.25 645.477C701.547 646.446 700.707 647.216 700.59 648.397C700.479 649.51 700.009 649.989 699.432 650.891L699.117 651.436C704.142 648.881 709.462 645.757 713.925 642.319C714.313 641.515 714.66 641.055 715.339 640.468C717.149 638.901 718.62 637.625 718.941 635.125C717.828 635.807 717.789 635.58 716.56 635.417C717.335 634.048 718.024 633.276 719.247 632.281L719.638 631.97L719.715 628.125L718.75 627.5C718.284 625.893 718.908 624.519 718.64 622.916L718.019 623.003C717.007 624.336 716.501 625.656 715.919 627.217ZM322.624 524.562C321.288 524.611 319.982 524.586 318.679 524.899L318.75 525.255L317.502 525.503C317.383 526.393 317.301 525.976 317.75 526.755C316.791 527.388 317.3 527.248 316.25 527.255C315.185 528.587 315.572 529.271 314.755 530.5L314.75 531.755L312.681 532.862L312.315 534.249C313.287 535.895 314.512 537.267 315.617 538.814C316.852 540.544 317.11 541.94 319.003 543.132C321.131 543.019 322.241 542.433 323.674 540.847C324.926 539.462 325.369 538.339 325.201 536.474L324.745 533.749C324.452 532.377 324.332 531.067 324.248 529.673L325.141 529.432L325.75 528.5L326.211 529.713L326.717 529.66C327.83 529.577 326.931 529.617 327.922 529.729C328.898 529.84 329.745 529.423 330.649 529.105L322.624 524.562ZM675.156 654.426C673.03 655.821 670.87 656.833 668.555 657.853C667.274 659.035 665.968 660.023 664.52 660.993L664.073 661.189L664.14 661.681C664.347 663.284 664.325 664.601 664.133 666.212C663.929 667.918 664.101 668.61 665.051 670L665.058 670.797L666.029 671.359L671.423 668.034C673.509 667.018 675.472 665.599 677.43 664.352L676.57 663.754L676.409 663.25L675.784 662.25C675.25 661.071 674.815 658.438 675.268 657.21C675.618 656.26 675.315 655.447 675.156 654.426ZM652.957 668.906L653.65 669.153C654.915 669.55 654.223 669.358 655.495 669.451C657.103 669.57 658.694 670.2 659.689 671.518L660.207 672.25L659.996 673L660.734 675.022L666.029 671.359L665.058 670.797L665.051 670C664.101 668.61 663.929 667.918 664.133 666.212C664.325 664.601 664.347 663.284 664.14 661.681L664.073 661.189C662 662.416 659.792 663.598 657.863 665.04C656.228 666.262 654.741 667.941 652.957 668.906Z"/>
	<path transform="scale(0.5 0.5)" d="M652.957 668.906C654.741 667.941 656.228 666.262 657.863 665.04C659.792 663.598 662 662.416 664.073 661.189L664.14 661.681C664.347 663.284 664.325 664.601 664.133 666.212C663.929 667.918 664.101 668.61 665.051 670L665.058 670.797L666.029 671.359L660.734 675.022L659.996 673L660.207 672.25L659.689 671.518C658.694 670.2 657.103 669.57 655.495 669.451C654.223 669.358 654.915 669.55 653.65 669.153L652.957 668.906Z"/>
	<path transform="scale(0.5 0.5)" d="M675.156 654.426C675.315 655.447 675.618 656.26 675.268 657.21C674.815 658.438 675.25 661.071 675.784 662.25L676.409 663.25L676.57 663.754L677.43 664.352C675.472 665.599 673.509 667.018 671.423 668.034L666.029 671.359L665.058 670.797L665.051 670C664.101 668.61 663.929 667.918 664.133 666.212C664.325 664.601 664.347 663.284 664.14 661.681L664.073 661.189L664.52 660.993C665.968 660.023 667.274 659.035 668.555 657.853C670.87 656.833 673.03 655.821 675.156 654.426ZM664.52 660.993L664.073 661.189L664.14 661.681C664.347 663.284 664.325 664.601 664.133 666.212C663.929 667.918 664.101 668.61 665.051 670L665.058 670.797L666.029 671.359L671.423 668.034L671.084 666.25C671.437 665.269 671.363 665.284 671.211 664.334C670.167 663.463 669.057 662.383 667.78 661.897L667.25 661.716C666.214 661.232 665.711 661.091 664.52 660.993Z"/>
	<defs>
		<linearGradient id="gradient_28" gradientUnits="userSpaceOnUse" x1="668.4361" y1="667.25177" x2="665.28253" y2="663.6236">
			<stop offset="0" stop-color="black" stop-opacity="0.027450981"/>
			<stop offset="1" stop-color="black" stop-opacity="0.05882353"/>
		</linearGradient>
	</defs>
	<path fill="url(#gradient_28)" transform="scale(0.5 0.5)" d="M664.52 660.993C665.711 661.091 666.214 661.232 667.25 661.716L667.78 661.897C669.057 662.383 670.167 663.463 671.211 664.334C671.363 665.284 671.437 665.269 671.084 666.25L671.423 668.034L666.029 671.359L665.058 670.797L665.051 670C664.101 668.61 663.929 667.918 664.133 666.212C664.325 664.601 664.347 663.284 664.14 661.681L664.073 661.189L664.52 660.993Z"/>
	<path fill="#250047" fill-opacity="0.67058825" transform="scale(0.5 0.5)" d="M322.624 524.562L330.649 529.105C329.745 529.423 328.898 529.84 327.922 529.729C326.931 529.617 327.83 529.577 326.717 529.66L326.211 529.713L325.75 528.5L325.141 529.432L324.248 529.673C324.332 531.067 324.452 532.377 324.745 533.749L325.201 536.474C325.369 538.339 324.926 539.462 323.674 540.847C322.241 542.433 321.131 543.019 319.003 543.132C317.11 541.94 316.852 540.544 315.617 538.814C314.512 537.267 313.287 535.895 312.315 534.249L312.681 532.862L314.75 531.755L314.755 530.5C315.572 529.271 315.185 528.587 316.25 527.255C317.3 527.248 316.791 527.388 317.75 526.755C317.301 525.976 317.383 526.393 317.502 525.503L318.75 525.255L318.679 524.899C319.982 524.586 321.288 524.611 322.624 524.562Z"/>
	<path transform="scale(0.5 0.5)" d="M715.919 627.217C716.501 625.656 717.007 624.336 718.019 623.003L718.64 622.916C718.908 624.519 718.284 625.893 718.75 627.5L719.715 628.125L719.638 631.97L719.247 632.281C718.024 633.276 717.335 634.048 716.56 635.417C717.789 635.58 717.828 635.807 718.941 635.125C718.62 637.625 717.149 638.901 715.339 640.468C714.66 641.055 714.313 641.515 713.925 642.319C709.462 645.757 704.142 648.881 699.117 651.436L699.432 650.891C700.009 649.989 700.479 649.51 700.59 648.397C700.707 647.216 701.547 646.446 702.25 645.477C703.006 645.341 703.624 645.253 704.398 645.305L705 645.364L705.507 644.75L706.465 644.395L706.335 643.589C704.765 642.57 702.721 643.489 700.856 643.07L700.025 642.858C698.754 642.649 697.313 642.537 696.25 643.245C696.549 644.159 696.497 643.737 696.497 644.497C695.686 644.949 695.249 645.119 694.297 645.204L693.5 645.245L692.75 645.745L690.406 645.043C689.316 645.835 688.296 646.599 687.311 647.519C685.034 649.645 681.23 650.714 678.545 652.449L677.878 652.666L675.156 654.426C673.03 655.821 670.87 656.833 668.555 657.853C670.288 655.497 674.446 653.526 677 652.013L693.783 642.232C701.974 637.729 709.675 634.549 715.919 627.217ZM690.406 645.043L692.75 645.745L693.5 645.245L694.297 645.204C695.249 645.119 695.686 644.949 696.497 644.497C696.497 643.737 696.549 644.159 696.25 643.245C697.313 642.537 698.754 642.649 700.025 642.858L700.856 643.07C702.721 643.489 704.765 642.57 706.335 643.589L706.465 644.395L705.507 644.75L705 645.364L704.398 645.305C703.624 645.253 703.006 645.341 702.25 645.477C701.547 646.446 700.707 647.216 700.59 648.397C700.479 649.51 700.009 649.989 699.432 650.891L699.117 651.436C704.142 648.881 709.462 645.757 713.925 642.319C714.313 641.515 714.66 641.055 715.339 640.468C717.149 638.901 718.62 637.625 718.941 635.125C717.828 635.807 717.789 635.58 716.56 635.417L713.996 635.644C713.115 635.721 712.375 635.698 711.503 635.605L711.817 636.072L711.454 637.714C711.266 638.451 710.983 638.73 710.465 639.25C708.79 639.368 708.216 639.156 706.75 638.336L703.511 639.12L703.25 639.874L704.519 640.25L704.466 640.763L698 640.971C695.067 642.88 694.066 644.336 690.406 645.043Z"/>
	<defs>
		<linearGradient id="gradient_29" gradientUnits="userSpaceOnUse" x1="712.62433" y1="637.26672" x2="714.54547" y2="638.29077">
			<stop offset="0" stop-color="black" stop-opacity="0.7764706"/>
			<stop offset="1" stop-color="black" stop-opacity="0.81176472"/>
		</linearGradient>
	</defs>
	<path fill="url(#gradient_29)" transform="scale(0.5 0.5)" d="M690.406 645.043C694.066 644.336 695.067 642.88 698 640.971L704.466 640.763L704.519 640.25L703.25 639.874L703.511 639.12L706.75 638.336C708.216 639.156 708.79 639.368 710.465 639.25C710.983 638.73 711.266 638.451 711.454 637.714L711.817 636.072L711.503 635.605C712.375 635.698 713.115 635.721 713.996 635.644L716.56 635.417C717.789 635.58 717.828 635.807 718.941 635.125C718.62 637.625 717.149 638.901 715.339 640.468C714.66 641.055 714.313 641.515 713.925 642.319C709.462 645.757 704.142 648.881 699.117 651.436L699.432 650.891C700.009 649.989 700.479 649.51 700.59 648.397C700.707 647.216 701.547 646.446 702.25 645.477C703.006 645.341 703.624 645.253 704.398 645.305L705 645.364L705.507 644.75L706.465 644.395L706.335 643.589C704.765 642.57 702.721 643.489 700.856 643.07L700.025 642.858C698.754 642.649 697.313 642.537 696.25 643.245C696.549 644.159 696.497 643.737 696.497 644.497C695.686 644.949 695.249 645.119 694.297 645.204L693.5 645.245L692.75 645.745L690.406 645.043Z"/>
	<defs>
		<linearGradient id="gradient_30" gradientUnits="userSpaceOnUse" x1="650.1947" y1="678.22644" x2="646.82916" y2="674.70709">
			<stop offset="0" stop-color="black" stop-opacity="0.06666667"/>
			<stop offset="1" stop-color="black" stop-opacity="0.10196079"/>
		</linearGradient>
	</defs>
	<path fill="url(#gradient_30)" transform="scale(0.5 0.5)" d="M640.584 676.617L652.957 668.906L653.65 669.153C654.915 669.55 654.223 669.358 655.495 669.451C657.103 669.57 658.694 670.2 659.689 671.518L660.207 672.25L659.996 673L660.734 675.022L659.841 675.192C657.532 676.611 655.129 678.382 652.607 679.365L648.56 681.815L636.816 688.943L635.306 687.569L635 687.255L634 688C633.184 687.413 632.707 687.27 631.722 687.251L630.75 687.245L629.755 686C628.977 685.737 629.116 685.896 628.636 685.416L627.369 684.056C629.785 682.38 632.421 681.419 634.92 679.938C636.991 678.711 638.199 677.469 640.584 676.617ZM627.369 684.056L628.636 685.416C629.116 685.896 628.977 685.737 629.755 686L630.75 687.245L631.722 687.251C632.707 687.27 633.184 687.413 634 688L635 687.255L635.306 687.569L636.816 688.943L648.56 681.815C647.721 680.86 647.057 680.007 646.489 678.868C646.075 678.038 645.11 677.966 644.25 677.662L643.841 677.885C642.213 678.748 641.431 678.983 639.608 678.416L640.816 677.725L641.288 677.487L640.584 676.617C638.199 677.469 636.991 678.711 634.92 679.938C632.421 681.419 629.785 682.38 627.369 684.056ZM652.607 679.365C655.129 678.382 657.532 676.611 659.841 675.192C658.581 673.041 658.184 672.299 656 671.035C654.716 671.011 654.069 670.792 652.947 671.5L652.897 672.352C652.811 673.527 652.426 674.423 651.977 675.5L652.942 676.75L652.25 677.255L652.25 678.085L651.861 678.832L652.607 679.365Z"/>
	<defs>
		<linearGradient id="gradient_31" gradientUnits="userSpaceOnUse" x1="656.15558" y1="675.58521" x2="653.38141" y2="671.58221">
			<stop offset="0" stop-color="black" stop-opacity="0"/>
			<stop offset="1" stop-color="black" stop-opacity="0.031372551"/>
		</linearGradient>
	</defs>
	<path fill="url(#gradient_31)" transform="scale(0.5 0.5)" d="M652.607 679.365L651.861 678.832L652.25 678.085L652.25 677.255L652.942 676.75L651.977 675.5C652.426 674.423 652.811 673.527 652.897 672.352L652.947 671.5C654.069 670.792 654.716 671.011 656 671.035C658.184 672.299 658.581 673.041 659.841 675.192C657.532 676.611 655.129 678.382 652.607 679.365Z"/>
	<defs>
		<linearGradient id="gradient_32" gradientUnits="userSpaceOnUse" x1="641.90588" y1="685.17084" x2="640.27332" y2="679.14514">
			<stop offset="0" stop-color="black" stop-opacity="0"/>
			<stop offset="1" stop-color="black" stop-opacity="0.043137256"/>
		</linearGradient>
	</defs>
	<path fill="url(#gradient_32)" transform="scale(0.5 0.5)" d="M627.369 684.056C629.785 682.38 632.421 681.419 634.92 679.938C636.991 678.711 638.199 677.469 640.584 676.617L641.288 677.487L640.816 677.725L639.608 678.416C641.431 678.983 642.213 678.748 643.841 677.885L644.25 677.662C645.11 677.966 646.075 678.038 646.489 678.868C647.057 680.007 647.721 680.86 648.56 681.815L636.816 688.943L635.306 687.569L635 687.255L634 688C633.184 687.413 632.707 687.27 631.722 687.251L630.75 687.245L629.755 686C628.977 685.737 629.116 685.896 628.636 685.416L627.369 684.056Z"/>
	<path transform="scale(0.5 0.5)" d="M690.406 645.043L692.75 645.745L693.5 645.245L694.297 645.204C695.249 645.119 695.686 644.949 696.497 644.497C696.497 643.737 696.549 644.159 696.25 643.245C697.313 642.537 698.754 642.649 700.025 642.858L700.856 643.07C702.721 643.489 704.765 642.57 706.335 643.589L706.465 644.395L705.507 644.75L705 645.364L704.398 645.305C703.624 645.253 703.006 645.341 702.25 645.477C701.547 646.446 700.707 647.216 700.59 648.397C700.479 649.51 700.009 649.989 699.432 650.891L699.117 651.436L686.622 658.762L685.953 659.142L677.43 664.352L676.57 663.754L676.409 663.25L675.784 662.25C675.25 661.071 674.815 658.438 675.268 657.21C675.618 656.26 675.315 655.447 675.156 654.426L677.878 652.666L678.545 652.449C681.23 650.714 685.034 649.645 687.311 647.519C688.296 646.599 689.316 645.835 690.406 645.043ZM677.878 652.666L675.156 654.426C675.315 655.447 675.618 656.26 675.268 657.21C674.815 658.438 675.25 661.071 675.784 662.25L676.409 663.25L676.57 663.754L677.43 664.352L685.953 659.142L685.385 658.328L684.562 657.865C684.575 656.984 684.267 656.531 683.897 655.75C681.731 654.97 679.947 653.662 677.878 652.666ZM678.545 652.449L677.878 652.666C679.947 653.662 681.731 654.97 683.897 655.75C684.267 656.531 684.575 656.984 684.562 657.865L685.385 658.328L685.953 659.142L686.622 658.762C686.74 657.994 686.766 656.39 687.086 655.75C687.542 654.841 690.018 654.081 690.7 653.241C691.097 652.752 691.19 652.08 691.435 651.5L691 650.572C688.591 650.209 686.978 650.377 684.791 651.473L682.171 652.73L678.545 652.449Z"/>
	<defs>
		<linearGradient id="gradient_33" gradientUnits="userSpaceOnUse" x1="685.98694" y1="653.48126" x2="689.61444" y2="650.94794">
			<stop offset="0" stop-color="black" stop-opacity="0.21568628"/>
			<stop offset="1" stop-color="black" stop-opacity="0.24705882"/>
		</linearGradient>
	</defs>
	<path fill="url(#gradient_33)" transform="scale(0.5 0.5)" d="M678.545 652.449L682.171 652.73L684.791 651.473C686.978 650.377 688.591 650.209 691 650.572L691.435 651.5C691.19 652.08 691.097 652.752 690.7 653.241C690.018 654.081 687.542 654.841 687.086 655.75C686.766 656.39 686.74 657.994 686.622 658.762L685.953 659.142L685.385 658.328L684.562 657.865C684.575 656.984 684.267 656.531 683.897 655.75C681.731 654.97 679.947 653.662 677.878 652.666L678.545 652.449Z"/>
	<defs>
		<linearGradient id="gradient_34" gradientUnits="userSpaceOnUse" x1="677.93274" y1="662.09747" x2="679.77924" y2="653.90082">
			<stop offset="0" stop-color="black" stop-opacity="0"/>
			<stop offset="1" stop-color="black" stop-opacity="0.031372551"/>
		</linearGradient>
	</defs>
	<path fill="url(#gradient_34)" transform="scale(0.5 0.5)" d="M677.878 652.666C679.947 653.662 681.731 654.97 683.897 655.75C684.267 656.531 684.575 656.984 684.562 657.865L685.385 658.328L685.953 659.142L677.43 664.352L676.57 663.754L676.409 663.25L675.784 662.25C675.25 661.071 674.815 658.438 675.268 657.21C675.618 656.26 675.315 655.447 675.156 654.426L677.878 652.666Z"/>
	<path transform="scale(0.5 0.5)" d="M307.855 518.048C308.318 519.006 310.251 520.166 310.183 520.657C309.072 528.76 309.897 537.933 309.838 546.147L309.535 584.277C309.629 597.104 310.139 609.743 309.45 622.578C308.672 622.041 308.63 622.115 307.75 622.032C306.989 619.193 307.475 615.253 307.457 612.256C307.021 614.792 306.924 616.916 307.052 619.487C306.645 618.369 306.634 617.483 305.543 616.918L304.918 616.857L304.937 613.68C305.325 610.418 306.453 603.882 305.525 600.887L304.586 597.961C303.963 590.558 304.815 585.091 306.675 577.986L307.214 583.885C307.433 579.661 307.009 574.185 308.361 570.19L308.463 536.062C308.459 533.8 309.284 531.158 308.886 528.981C308.582 527.314 308.601 526.942 307.25 525.966C306.502 524.104 306.206 522.724 306.997 520.803C307.297 520.074 307.505 519.612 307.676 518.861L307.855 518.048ZM304.586 597.961L305.525 600.887C306.453 603.882 305.325 610.418 304.937 613.68L304.918 616.857L305.543 616.918C306.634 617.483 306.645 618.369 307.052 619.487C306.924 616.916 307.021 614.792 307.457 612.256L308.361 570.19C307.009 574.185 307.433 579.661 307.214 583.885L306.675 577.986C304.815 585.091 303.963 590.558 304.586 597.961Z"/>
	<defs>
		<linearGradient id="gradient_35" gradientUnits="userSpaceOnUse" x1="309.09677" y1="594.96539" x2="302.65359" y2="597.63812">
			<stop offset="0" stop-color="black" stop-opacity="0.24705882"/>
			<stop offset="1" stop-color="black" stop-opacity="0.38039216"/>
		</linearGradient>
	</defs>
	<path fill="url(#gradient_35)" transform="scale(0.5 0.5)" d="M304.586 597.961C303.963 590.558 304.815 585.091 306.675 577.986L307.214 583.885C307.433 579.661 307.009 574.185 308.361 570.19L307.457 612.256C307.021 614.792 306.924 616.916 307.052 619.487C306.645 618.369 306.634 617.483 305.543 616.918L304.918 616.857L304.937 613.68C305.325 610.418 306.453 603.882 305.525 600.887L304.586 597.961Z"/>
	<path transform="scale(0.5 0.5)" d="M343.041 649.652L475.459 731.857L474.641 732.681L386.152 679.266C384.193 677.604 382.477 676.656 380.142 675.662C377.768 674.084 374.901 673.579 372.691 671.664C370.319 669.608 367.992 668.513 365.144 667.292C363.632 666.086 361.667 665.394 360 664.391C357.735 663.028 355.558 661.431 353.407 659.892C351.977 655.428 349.623 656.424 346.889 653.663C346.172 652.939 346.606 653.17 345.666 652.819L345 652.59C343.802 652.049 343.472 650.783 343.041 649.652Z"/>
	<path fill="#C0F" transform="scale(0.5 0.5)" d="M628.339 550.846C631.984 551.875 635.198 552.78 637.094 556.414C638.039 558.225 638.426 560.351 638.857 562.334C636.83 565.362 634.677 569.657 631.787 571.888C623.077 578.611 612.69 583.522 603.359 589.388L560.317 616.445C550.369 622.724 540.477 629.861 529.568 634.363C523.25 631.004 516.649 627.917 511.088 623.355L514.546 620.158C521.465 614.901 529.066 610.905 536.464 606.406L577.123 581.763L592.833 571.556L607.028 563.236C613.93 558.911 620.812 554.003 628.339 550.846Z"/>
</svg>